<svg width="554" height="451" version="1.1" xmlns="http://www.w3.org/2000/svg" desc="Created with imagetracer.js version 1.2.6" ><path fill="rgb(233,136,168)" stroke="rgb(233,136,168)" stroke-width="1" opacity="0.8666666666666667" d="M 304.5 77 L 308 77.5 L 304.5 78 L 304.5 77 Z " /><path fill="rgb(233,136,168)" stroke="rgb(233,136,168)" stroke-width="1" opacity="0.8666666666666667" d="M 240.5 78 L 242 78.5 L 230.5 83 L 230.5 82 L 240.5 78 Z " /><path fill="rgb(233,136,168)" stroke="rgb(233,136,168)" stroke-width="1" opacity="0.8666666666666667" d="M 245.5 78 L 252 79.5 L 249.5 80 L 245.5 79 L 245.5 78 Z " /><path fill="rgb(233,136,168)" stroke="rgb(233,136,168)" stroke-width="1" opacity="0.8666666666666667" d="M 311.5 79 L 316 80.5 L 313.5 81 L 311.5 79 Z " /><path fill="rgb(233,136,168)" stroke="rgb(233,136,168)" stroke-width="1" opacity="0.8666666666666667" d="M 294.5 80 L 297 80.5 L 294.5 81 L 294.5 80 Z " /><path fill="rgb(233,136,168)" stroke="rgb(233,136,168)" stroke-width="1" opacity="0.8666666666666667" d="M 317.5 81 L 322 82.5 L 319.5 83 L 317.5 81 Z " /><path fill="rgb(233,136,168)" stroke="rgb(233,136,168)" stroke-width="1" opacity="0.8666666666666667" d="M 260.5 82 L 265 83.5 L 262.5 84 L 260.5 82 Z " /><path fill="rgb(233,136,168)" stroke="rgb(233,136,168)" stroke-width="1" opacity="0.8666666666666667" d="M 284.5 83 L 287 83.5 L 284.5 84 L 284.5 83 Z " /><path fill="rgb(233,136,168)" stroke="rgb(233,136,168)" stroke-width="1" opacity="0.8666666666666667" d="M 323.5 83 L 327 84.5 L 325.5 85 L 323.5 83 Z " /><path fill="rgb(233,136,168)" stroke="rgb(233,136,168)" stroke-width="1" opacity="0.8666666666666667" d="M 266.5 84 L 277 86.5 L 272.5 87 L 266.5 85 L 266.5 84 Z " /><path fill="rgb(233,136,168)" stroke="rgb(233,136,168)" stroke-width="1" opacity="0.8666666666666667" d="M 221.5 85 L 223 85.5 L 218.5 87 L 218.5 86 L 221.5 85 Z " /><path fill="rgb(233,136,168)" stroke="rgb(233,136,168)" stroke-width="1" opacity="0.8666666666666667" d="M 328.5 85 L 334 86.5 L 331.5 87 L 328.5 86 L 328.5 85 Z " /><path fill="rgb(233,136,168)" stroke="rgb(233,136,168)" stroke-width="1" opacity="0.8666666666666667" d="M 335.5 87 L 342 89.5 L 340.5 90 L 335.5 88 L 335.5 87 Z " /><path fill="rgb(233,136,168)" stroke="rgb(233,136,168)" stroke-width="1" opacity="0.8666666666666667" d="M 243.5 90 L 245 90.5 L 231.5 95 L 231.5 94 L 243.5 90 Z " /><path fill="rgb(233,136,168)" stroke="rgb(233,136,168)" stroke-width="1" opacity="0.8666666666666667" d="M 304.5 90 L 313 92.5 L 311.5 93 L 304.5 91 L 302.5 92 L 302.5 91 L 304.5 90 Z " /><path fill="rgb(233,136,168)" stroke="rgb(233,136,168)" stroke-width="1" opacity="0.8666666666666667" d="M 343.5 90 L 348 91.5 L 346.5 92 L 343.5 91 L 343.5 90 Z " /><path fill="rgb(233,136,168)" stroke="rgb(233,136,168)" stroke-width="1" opacity="0.8666666666666667" d="M 246.5 91 L 251 92.5 L 248.5 93 L 246.5 91 Z " /><path fill="rgb(233,136,168)" stroke="rgb(233,136,168)" stroke-width="1" opacity="0.8666666666666667" d="M 200.5 92 L 202 92.5 L 197.5 94 L 197.5 93 L 200.5 92 Z " /><path fill="rgb(233,136,168)" stroke="rgb(233,136,168)" stroke-width="1" opacity="0.8666666666666667" d="M 349.5 92 L 354 93.5 L 351.5 94 L 349.5 92 Z " /><path fill="rgb(233,136,168)" stroke="rgb(233,136,168)" stroke-width="1" opacity="0.8666666666666667" d="M 252.5 93 L 258 94.5 L 255.5 95 L 252.5 94 L 252.5 93 Z " /><path fill="rgb(233,136,168)" stroke="rgb(233,136,168)" stroke-width="1" opacity="0.8666666666666667" d="M 295.5 93 L 297 93.5 L 292.5 95 L 292.5 94 L 295.5 93 Z " /><path fill="rgb(233,136,168)" stroke="rgb(233,136,168)" stroke-width="1" opacity="0.8666666666666667" d="M 314.5 93 L 322 95.5 L 320.5 96 L 314.5 94 L 314.5 93 Z " /><path fill="rgb(233,136,168)" stroke="rgb(233,136,168)" stroke-width="1" opacity="0.8666666666666667" d="M 355.5 94 L 359 95.5 L 357.5 96 L 355.5 94 Z " /><path fill="rgb(233,136,168)" stroke="rgb(233,136,168)" stroke-width="1" opacity="0.8666666666666667" d="M 190.5 95 L 193 95.5 L 187.5 97 L 187.5 96 L 190.5 95 Z " /><path fill="rgb(233,136,168)" stroke="rgb(233,136,168)" stroke-width="1" opacity="0.8666666666666667" d="M 262.5 96 L 265 96.5 L 262.5 97 L 262.5 96 Z " /><path fill="rgb(233,136,168)" stroke="rgb(233,136,168)" stroke-width="1" opacity="0.8666666666666667" d="M 266.5 97 L 270 99.5 L 267.5 98 L 266.5 97 Z " /><path fill="rgb(233,136,168)" stroke="rgb(233,136,168)" stroke-width="1" opacity="0.8666666666666667" d="M 282.5 97 L 285 97.5 L 280.5 100 L 282.5 97 Z " /><path fill="rgb(233,136,168)" stroke="rgb(233,136,168)" stroke-width="1" opacity="0.8666666666666667" d="M 326.5 97 L 334 99.5 L 332.5 100 L 326.5 98 L 326.5 97 Z " /><path fill="rgb(233,136,168)" stroke="rgb(233,136,168)" stroke-width="1" opacity="0.8666666666666667" d="M 181.5 98 L 183 98.5 L 167 113.5 Q 167.8 115.8 165.5 115 L 163 119 L 160 120.5 L 147 136 L 143.5 138 L 154 126.5 L 174 105.5 L 174 104 Q 176.7 105.1 176 102.5 L 181.5 98 Z " /><path fill="rgb(233,136,168)" stroke="rgb(233,136,168)" stroke-width="1" opacity="0.8666666666666667" d="M 219.5 98 L 221 98.5 L 217.5 100 L 217.5 99 L 219.5 98 Z " /><path fill="rgb(233,136,168)" stroke="rgb(233,136,168)" stroke-width="1" opacity="0.8666666666666667" d="M 366.5 98 L 401 131.5 L 400.5 133 L 398.5 130 L 396 128.5 Q 396.8 126.3 394.5 127 L 367.5 99 L 366.5 98 Z " /><path fill="rgb(233,136,168)" stroke="rgb(233,136,168)" stroke-width="1" opacity="0.8666666666666667" d="M 335.5 100 L 343 102.5 L 341.5 103 L 335.5 101 L 335.5 100 Z " /><path fill="rgb(233,136,168)" stroke="rgb(233,136,168)" stroke-width="1" opacity="0.8666666666666667" d="M 210.5 101 L 212 101.5 L 208.5 103 L 208.5 102 L 210.5 101 Z " /><path fill="rgb(233,136,168)" stroke="rgb(233,136,168)" stroke-width="1" opacity="0.8666666666666667" d="M 269.5 101 L 270 113.5 L 269 113.5 L 269.5 101 Z " /><path fill="rgb(233,136,168)" stroke="rgb(233,136,168)" stroke-width="1" opacity="0.8666666666666667" d="M 204.5 103 L 207 103.5 L 199.5 106 L 199.5 105 L 204.5 103 Z " /><path fill="rgb(233,136,168)" stroke="rgb(233,136,168)" stroke-width="1" opacity="0.8666666666666667" d="M 193.5 107 L 195 107.5 L 188.5 110 L 188.5 109 L 193.5 107 Z " /><path fill="rgb(233,136,168)" stroke="rgb(233,136,168)" stroke-width="1" opacity="0.8666666666666667" d="M 355.5 107 L 362 109.5 L 360.5 110 L 355 109 L 352.5 114 L 353 112.5 L 355.5 107 Z " /><path fill="rgb(233,136,168)" stroke="rgb(233,136,168)" stroke-width="1" opacity="0.8666666666666667" d="M 343.5 108 L 344 109.5 L 337.5 120 L 338 118.5 L 343.5 108 Z " /><path fill="rgb(233,136,168)" stroke="rgb(233,136,168)" stroke-width="1" opacity="0.8666666666666667" d="M 186.5 110 L 178 119.5 L 179 122.5 L 198.5 142 L 200.5 141 L 199.5 143 L 177 121.5 L 177 119.5 L 186.5 110 Z " /><path fill="rgb(233,136,168)" stroke="rgb(233,136,168)" stroke-width="1" opacity="0.8666666666666667" d="M 227.5 110 Q 235.5 108.5 238 112.5 L 236.5 112 L 227.5 111 L 227.5 110 Z " /><path fill="rgb(233,136,168)" stroke="rgb(233,136,168)" stroke-width="1" opacity="0.8666666666666667" d="M 363.5 110 L 373.5 121 Q 375.8 120.3 375 122.5 L 384.5 133 L 370 118.5 L 370 117 L 367 115.5 L 365.5 113 Q 363.3 113.8 364 111.5 L 363.5 110 Z " /><path fill="rgb(233,136,168)" stroke="rgb(233,136,168)" stroke-width="1" opacity="0.8666666666666667" d="M 225.5 111 L 222 115.5 L 221.5 117 L 221 115.5 L 223 112 L 225.5 111 Z " /><path fill="rgb(233,136,168)" stroke="rgb(233,136,168)" stroke-width="1" opacity="0.8666666666666667" d="M 239.5 114 Q 243.3 116.3 242 123.5 L 240.5 126 L 240 124.5 Q 242.5 123 241 117.5 L 239.5 114 Z " /><path fill="rgb(233,136,168)" stroke="rgb(233,136,168)" stroke-width="1" opacity="0.8666666666666667" d="M 310.5 114 L 309.5 116 L 305.5 119 L 308.5 115 L 310.5 114 Z " /><path fill="rgb(233,136,168)" stroke="rgb(233,136,168)" stroke-width="1" opacity="0.8666666666666667" d="M 317.5 114 L 319.5 114 L 324 118.5 L 319.5 115 Q 316.5 115.5 317.5 114 Z " /><path fill="rgb(233,136,168)" stroke="rgb(233,136,168)" stroke-width="1" opacity="0.8666666666666667" d="M 220.5 118 L 221 122.5 L 220 122.5 L 220.5 118 Z " /><path fill="rgb(233,136,168)" stroke="rgb(233,136,168)" stroke-width="1" opacity="0.8666666666666667" d="M 281.5 118 L 282 122.5 L 281 122.5 L 281.5 118 Z " /><path fill="rgb(233,136,168)" stroke="rgb(233,136,168)" stroke-width="1" opacity="0.8666666666666667" d="M 324.5 120 Q 326.8 121.8 326 126.5 L 325 126.5 L 324.5 120 Z " /><path fill="rgb(233,136,168)" stroke="rgb(233,136,168)" stroke-width="1" opacity="0.8666666666666667" d="M 336.5 121 L 337 122.5 L 335 123.5 L 336.5 121 Z " /><path fill="rgb(233,136,168)" stroke="rgb(233,136,168)" stroke-width="1" opacity="0.8666666666666667" d="M 348.5 121 L 349 122.5 L 347 123.5 L 348.5 121 Z " /><path fill="rgb(233,136,168)" stroke="rgb(233,136,168)" stroke-width="1" opacity="0.8666666666666667" d="M 220.5 125 L 219.5 127 L 202.5 140 L 205.5 136 L 220.5 125 Z " /><path fill="rgb(233,136,168)" stroke="rgb(233,136,168)" stroke-width="1" opacity="0.8666666666666667" d="M 281.5 125 L 282 132.5 L 281 132.5 L 281.5 125 Z " /><path fill="rgb(233,136,168)" stroke="rgb(233,136,168)" stroke-width="1" opacity="0.8666666666666667" d="M 304.5 125 L 306 131.5 L 297 139.5 L 305 131.5 L 305 128.5 L 304.5 125 Z " /><path fill="rgb(233,136,168)" stroke="rgb(233,136,168)" stroke-width="1" opacity="0.8666666666666667" d="M 169.5 127 L 173 128 L 173 129.5 L 198 154.5 L 198 157 L 193 156.5 L 197 156 L 197 154.5 L 170.5 128 L 166 131.5 L 150.5 149 L 147 151.5 L 144.5 156 L 144 154.5 L 149.5 148 L 152 146.5 L 169.5 127 Z " /><path fill="rgb(233,136,168)" stroke="rgb(233,136,168)" stroke-width="1" opacity="0.8666666666666667" d="M 240.5 127 Q 252.9 142.1 269 153.5 L 267.5 154 L 240.5 127 Z " /><path fill="rgb(233,136,168)" stroke="rgb(233,136,168)" stroke-width="1" opacity="0.8666666666666667" d="M 333.5 127 L 334 128.5 L 332 129.5 L 333.5 127 Z " /><path fill="rgb(233,136,168)" stroke="rgb(233,136,168)" stroke-width="1" opacity="0.8666666666666667" d="M 324.5 128 L 325 129.5 L 321.5 134 L 318.5 135 L 318.5 134 L 323 131.5 L 324.5 128 Z " /><path fill="rgb(233,136,168)" stroke="rgb(233,136,168)" stroke-width="1" opacity="0.8666666666666667" d="M 225.5 131 L 227 131.5 L 206.5 149 L 207.5 147 L 225.5 131 Z " /><path fill="rgb(233,136,168)" stroke="rgb(233,136,168)" stroke-width="1" opacity="0.8666666666666667" d="M 230.5 131 L 233.5 131 L 240 137.5 L 247 145.5 L 239 138.5 L 233.5 132 Q 229.5 132.8 230.5 131 Z " /><path fill="rgb(233,136,168)" stroke="rgb(233,136,168)" stroke-width="1" opacity="0.8666666666666667" d="M 330.5 133 L 331 134.5 L 329 135.5 L 330.5 133 Z " /><path fill="rgb(233,136,168)" stroke="rgb(233,136,168)" stroke-width="1" opacity="0.8666666666666667" d="M 402.5 133 L 403.5 135 Q 400.7 135.7 402.5 133 Z " /><path fill="rgb(233,136,168)" stroke="rgb(233,136,168)" stroke-width="1" opacity="0.8666666666666667" d="M 281.5 134 L 282 137.5 L 281 137.5 L 281.5 134 Z " /><path fill="rgb(233,136,168)" stroke="rgb(233,136,168)" stroke-width="1" opacity="0.8666666666666667" d="M 386.5 134 L 392 140.5 L 391 143 L 384.5 146 L 385.5 144 L 391 140.5 L 386 135.5 L 386.5 134 Z " /><path fill="rgb(233,136,168)" stroke="rgb(233,136,168)" stroke-width="1" opacity="0.8666666666666667" d="M 311.5 135 L 307 140.5 L 298.5 150 L 305 142.5 L 311.5 135 Z " /><path fill="rgb(233,136,168)" stroke="rgb(233,136,168)" stroke-width="1" opacity="0.8666666666666667" d="M 313.5 135 L 317 135.5 L 313.5 136 L 313.5 135 Z " /><path fill="rgb(233,136,168)" stroke="rgb(233,136,168)" stroke-width="1" opacity="0.8666666666666667" d="M 404.5 136 L 407 137 L 408 139.5 L 404.5 136 Z " /><path fill="rgb(233,136,168)" stroke="rgb(233,136,168)" stroke-width="1" opacity="0.8666666666666667" d="M 340.5 137 L 340 138.5 L 338.5 142 L 338 140.5 L 340.5 137 Z " /><path fill="rgb(233,136,168)" stroke="rgb(233,136,168)" stroke-width="1" opacity="0.8666666666666667" d="M 140.5 140 L 141 141.5 L 136.5 145 L 137.5 143 L 140 141.5 L 140.5 140 Z " /><path fill="rgb(233,136,168)" stroke="rgb(233,136,168)" stroke-width="1" opacity="0.8666666666666667" d="M 281.5 140 L 282 143.5 L 281 143.5 L 281.5 140 Z " /><path fill="rgb(233,136,168)" stroke="rgb(233,136,168)" stroke-width="1" opacity="0.8666666666666667" d="M 295.5 140 L 295 141.5 L 292.5 145 L 289.5 147 L 287 151 L 283.5 153 L 295.5 140 Z " /><path fill="rgb(233,136,168)" stroke="rgb(233,136,168)" stroke-width="1" opacity="0.8666666666666667" d="M 409.5 140 L 416 147.5 L 414 146.5 Q 414.8 144.3 412.5 145 L 409.5 140 Z " /><path fill="rgb(233,136,168)" stroke="rgb(233,136,168)" stroke-width="1" opacity="0.8666666666666667" d="M 326.5 141 L 327 142.5 L 325 143.5 L 326.5 141 Z " /><path fill="rgb(233,136,168)" stroke="rgb(233,136,168)" stroke-width="1" opacity="0.8666666666666667" d="M 337.5 143 L 338 144.5 L 336 145.5 L 337.5 143 Z " /><path fill="rgb(233,136,168)" stroke="rgb(233,136,168)" stroke-width="1" opacity="0.8666666666666667" d="M 135.5 146 L 134.5 148 L 135.5 146 Z " /><path fill="rgb(233,136,168)" stroke="rgb(233,136,168)" stroke-width="1" opacity="0.8666666666666667" d="M 248.5 147 L 249.5 149 L 248.5 147 Z " /><path fill="rgb(233,136,168)" stroke="rgb(233,136,168)" stroke-width="1" opacity="0.8666666666666667" d="M 323.5 147 L 324 148.5 L 321.5 152 L 322 150.5 L 323.5 147 Z " /><path fill="rgb(233,136,168)" stroke="rgb(233,136,168)" stroke-width="1" opacity="0.8666666666666667" d="M 380.5 147 L 379.5 149 L 377.5 150 L 378.5 148 L 380.5 147 Z " /><path fill="rgb(233,136,168)" stroke="rgb(233,136,168)" stroke-width="1" opacity="0.8666666666666667" d="M 334.5 149 L 335 150.5 L 331.5 157 L 331 154.5 L 334.5 149 Z " /><path fill="rgb(233,136,168)" stroke="rgb(233,136,168)" stroke-width="1" opacity="0.8666666666666667" d="M 397.5 149 L 400.5 149 L 407 155.5 L 408 162.5 L 407 162.5 Q 407.3 152.7 400.5 150 L 396.5 151 L 397.5 149 Z " /><path fill="rgb(233,136,168)" stroke="rgb(233,136,168)" stroke-width="1" opacity="0.8666666666666667" d="M 133.5 150 L 134 152.5 L 132.5 156 L 132 153.5 L 133.5 150 Z " /><path fill="rgb(233,136,168)" stroke="rgb(233,136,168)" stroke-width="1" opacity="0.8666666666666667" d="M 206.5 150 L 211 156 L 239 156.5 L 211.5 157 L 206.5 150 Z " /><path fill="rgb(233,136,168)" stroke="rgb(233,136,168)" stroke-width="1" opacity="0.8666666666666667" d="M 250.5 150 L 256 154.5 L 255.5 157 L 250.5 150 Z " /><path fill="rgb(233,136,168)" stroke="rgb(233,136,168)" stroke-width="1" opacity="0.8666666666666667" d="M 373.5 151 L 372.5 153 L 366.5 156 L 367.5 154 L 373.5 151 Z " /><path fill="rgb(233,136,168)" stroke="rgb(233,136,168)" stroke-width="1" opacity="0.8666666666666667" d="M 296.5 152 L 294.5 156 L 296 156.5 L 293 157 L 296.5 152 Z " /><path fill="rgb(233,136,168)" stroke="rgb(233,136,168)" stroke-width="1" opacity="0.8666666666666667" d="M 392.5 152 L 391.5 154 L 392.5 152 Z " /><path fill="rgb(233,136,168)" stroke="rgb(233,136,168)" stroke-width="1" opacity="0.8666666666666667" d="M 389.5 154 L 388.5 156 L 389.5 154 Z " /><path fill="rgb(233,136,168)" stroke="rgb(233,136,168)" stroke-width="1" opacity="0.8666666666666667" d="M 417.5 154 L 419 159.5 L 418 159.5 L 417.5 154 Z " /><path fill="rgb(233,136,168)" stroke="rgb(233,136,168)" stroke-width="1" opacity="0.8666666666666667" d="M 319.5 155 L 320 157 L 318 156.5 L 319.5 155 Z " /><path fill="rgb(233,136,168)" stroke="rgb(233,136,168)" stroke-width="1" opacity="0.8666666666666667" d="M 243.5 156 L 253 156.5 L 243.5 157 L 243.5 156 Z " /><path fill="rgb(233,136,168)" stroke="rgb(233,136,168)" stroke-width="1" opacity="0.8666666666666667" d="M 386.5 156 L 387.5 159 L 400 167.5 L 398.5 167 Q 393 161 385 159 L 386.5 156 Z " /><path fill="rgb(233,136,168)" stroke="rgb(233,136,168)" stroke-width="1" opacity="0.8666666666666667" d="M 143.5 157 L 144 159.5 L 143 159.5 L 143.5 157 Z " /><path fill="rgb(233,136,168)" stroke="rgb(233,136,168)" stroke-width="1" opacity="0.8666666666666667" d="M 313.5 157 L 316 157.5 L 313.5 158 L 313.5 157 Z " /><path fill="rgb(233,136,168)" stroke="rgb(233,136,168)" stroke-width="1" opacity="0.8666666666666667" d="M 182.5 159 L 184 159.5 L 175.5 164 L 176.5 162 L 182.5 159 Z " /><path fill="rgb(233,136,168)" stroke="rgb(233,136,168)" stroke-width="1" opacity="0.8666666666666667" d="M 130.5 160 L 131 163.5 L 128.5 170 L 128 167.5 L 130.5 160 Z " /><path fill="rgb(233,136,168)" stroke="rgb(233,136,168)" stroke-width="1" opacity="0.8666666666666667" d="M 142.5 161 L 143 163.5 L 141.5 168 L 141 164.5 L 142.5 161 Z " /><path fill="rgb(233,136,168)" stroke="rgb(233,136,168)" stroke-width="1" opacity="0.8666666666666667" d="M 419.5 161 L 421 166.5 L 420 166.5 L 419.5 161 Z " /><path fill="rgb(233,136,168)" stroke="rgb(233,136,168)" stroke-width="1" opacity="0.8666666666666667" d="M 173.5 164 L 172.5 166 L 173.5 164 Z " /><path fill="rgb(233,136,168)" stroke="rgb(233,136,168)" stroke-width="1" opacity="0.8666666666666667" d="M 170.5 166 L 168.5 169 L 160 176.5 Q 160.8 178.8 158.5 178 L 154.5 180 L 154.5 179 L 156.5 179 L 170.5 166 Z " /><path fill="rgb(233,136,168)" stroke="rgb(233,136,168)" stroke-width="1" opacity="0.8666666666666667" d="M 421.5 168 L 423 172.5 L 422 172.5 L 421.5 168 Z " /><path fill="rgb(233,136,168)" stroke="rgb(233,136,168)" stroke-width="1" opacity="0.8666666666666667" d="M 206.5 169 L 219 169.5 L 206.5 170 L 206.5 169 Z " /><path fill="rgb(233,136,168)" stroke="rgb(233,136,168)" stroke-width="1" opacity="0.8666666666666667" d="M 400.5 169 Q 403 170 402 174.5 L 401 174.5 L 400.5 169 Z " /><path fill="rgb(233,136,168)" stroke="rgb(233,136,168)" stroke-width="1" opacity="0.8666666666666667" d="M 195.5 170 L 198 170.5 L 195.5 171 L 195.5 170 Z " /><path fill="rgb(233,136,168)" stroke="rgb(233,136,168)" stroke-width="1" opacity="0.8666666666666667" d="M 273.5 170 L 274 173.5 L 273 173.5 L 273.5 170 Z " /><path fill="rgb(233,136,168)" stroke="rgb(233,136,168)" stroke-width="1" opacity="0.8666666666666667" d="M 286.5 170 L 285.5 172 L 286.5 170 Z " /><path fill="rgb(233,136,168)" stroke="rgb(233,136,168)" stroke-width="1" opacity="0.8666666666666667" d="M 410.5 170 L 411 172.5 L 410 172.5 L 410.5 170 Z " /><path fill="rgb(233,136,168)" stroke="rgb(233,136,168)" stroke-width="1" opacity="0.8666666666666667" d="M 190.5 171 L 194 171.5 L 188.5 173 L 188.5 172 L 190.5 171 Z " /><path fill="rgb(233,136,168)" stroke="rgb(233,136,168)" stroke-width="1" opacity="0.8666666666666667" d="M 139.5 173 L 140 175.5 L 139 175.5 L 139.5 173 Z " /><path fill="rgb(233,136,168)" stroke="rgb(233,136,168)" stroke-width="1" opacity="0.8666666666666667" d="M 126.5 174 L 127 176.5 L 126 176.5 L 126.5 174 Z " /><path fill="rgb(233,136,168)" stroke="rgb(233,136,168)" stroke-width="1" opacity="0.8666666666666667" d="M 183.5 174 L 185 174.5 Q 175.5 178.5 170 186.5 L 167.5 191 L 167 189.5 L 173 181 L 183.5 174 Z " /><path fill="rgb(233,136,168)" stroke="rgb(233,136,168)" stroke-width="1" opacity="0.8666666666666667" d="M 411.5 174 L 413 179.5 L 412 179.5 L 411.5 174 Z " /><path fill="rgb(233,136,168)" stroke="rgb(233,136,168)" stroke-width="1" opacity="0.8666666666666667" d="M 423.5 174 L 424 176.5 L 423 176.5 L 423.5 174 Z " /><path fill="rgb(233,136,168)" stroke="rgb(233,136,168)" stroke-width="1" opacity="0.8666666666666667" d="M 141.5 176 L 144 176.5 L 141.5 177 L 141.5 176 Z " /><path fill="rgb(233,136,168)" stroke="rgb(233,136,168)" stroke-width="1" opacity="0.8666666666666667" d="M 272.5 176 L 273 180.5 L 272 180.5 L 272.5 176 Z " /><path fill="rgb(233,136,168)" stroke="rgb(233,136,168)" stroke-width="1" opacity="0.8666666666666667" d="M 400.5 176 L 401 181.5 L 400 181.5 L 400.5 176 Z " /><path fill="rgb(233,136,168)" stroke="rgb(233,136,168)" stroke-width="1" opacity="0.8666666666666667" d="M 146.5 177 L 149 177.5 L 146.5 178 L 146.5 177 Z " /><path fill="rgb(233,136,168)" stroke="rgb(233,136,168)" stroke-width="1" opacity="0.8666666666666667" d="M 125.5 178 L 126 180.5 L 124.5 183 L 124 181.5 L 125.5 178 Z " /><path fill="rgb(233,136,168)" stroke="rgb(233,136,168)" stroke-width="1" opacity="0.8666666666666667" d="M 150.5 178 L 153 178.5 L 150.5 179 L 150.5 178 Z " /><path fill="rgb(233,136,168)" stroke="rgb(233,136,168)" stroke-width="1" opacity="0.8666666666666667" d="M 424.5 178 L 427 185.5 L 426 185.5 L 424.5 178 Z " /><path fill="rgb(233,136,168)" stroke="rgb(233,136,168)" stroke-width="1" opacity="0.8666666666666667" d="M 271.5 182 L 272 185.5 L 271 185.5 L 271.5 182 Z " /><path fill="rgb(233,136,168)" stroke="rgb(233,136,168)" stroke-width="1" opacity="0.8666666666666667" d="M 399.5 184 L 400 188.5 L 399 188.5 L 399.5 184 Z " /><path fill="rgb(233,136,168)" stroke="rgb(233,136,168)" stroke-width="1" opacity="0.8666666666666667" d="M 123.5 185 L 124 187.5 L 123 187.5 L 123.5 185 Z " /><path fill="rgb(233,136,168)" stroke="rgb(233,136,168)" stroke-width="1" opacity="0.8666666666666667" d="M 136.5 186 L 136 187.5 L 133.5 196 L 133 193.5 L 136.5 186 Z " /><path fill="rgb(233,136,168)" stroke="rgb(233,136,168)" stroke-width="1" opacity="0.8666666666666667" d="M 143.5 187 L 150 188.5 L 147.5 189 L 143.5 188 L 143.5 187 Z " /><path fill="rgb(233,136,168)" stroke="rgb(233,136,168)" stroke-width="1" opacity="0.8666666666666667" d="M 427.5 188 L 430 195.5 L 429 195.5 L 427.5 188 Z " /><path fill="rgb(233,136,168)" stroke="rgb(233,136,168)" stroke-width="1" opacity="0.8666666666666667" d="M 270.5 190 L 271 192.5 L 270 192.5 L 270.5 190 Z " /><path fill="rgb(233,136,168)" stroke="rgb(233,136,168)" stroke-width="1" opacity="0.8666666666666667" d="M 416.5 191 L 420 204.5 L 382.5 237 L 388.5 230 L 419 204.5 L 416.5 191 Z " /><path fill="rgb(233,136,168)" stroke="rgb(233,136,168)" stroke-width="1" opacity="0.8666666666666667" d="M 121.5 192 L 122 194.5 L 118.5 204 L 118 201.5 L 121.5 192 Z " /><path fill="rgb(233,136,168)" stroke="rgb(233,136,168)" stroke-width="1" opacity="0.8666666666666667" d="M 166.5 192 L 166 193.5 L 163.5 199 L 163 197.5 L 166.5 192 Z " /><path fill="rgb(233,136,168)" stroke="rgb(233,136,168)" stroke-width="1" opacity="0.8666666666666667" d="M 269.5 194 L 270 199 L 208 198.5 L 269 198 L 269.5 194 Z " /><path fill="rgb(233,136,168)" stroke="rgb(233,136,168)" stroke-width="1" opacity="0.8666666666666667" d="M 149.5 196 L 150 198.5 L 149 198.5 L 149.5 196 Z " /><path fill="rgb(233,136,168)" stroke="rgb(233,136,168)" stroke-width="1" opacity="0.8666666666666667" d="M 281.5 196 L 282 199.5 L 281 199.5 L 281.5 196 Z " /><path fill="rgb(233,136,168)" stroke="rgb(233,136,168)" stroke-width="1" opacity="0.8666666666666667" d="M 397.5 196 L 398 199.5 L 397 199.5 L 397.5 196 Z " /><path fill="rgb(233,136,168)" stroke="rgb(233,136,168)" stroke-width="1" opacity="0.8666666666666667" d="M 132.5 197 L 133 198.5 L 130.5 205 L 130 202.5 L 132.5 197 Z " /><path fill="rgb(233,136,168)" stroke="rgb(233,136,168)" stroke-width="1" opacity="0.8666666666666667" d="M 203.5 199 L 207 199.5 L 203.5 200 L 203.5 199 Z " /><path fill="rgb(233,136,168)" stroke="rgb(233,136,168)" stroke-width="1" opacity="0.8666666666666667" d="M 352.5 199 L 386 199.5 L 352.5 200 L 352.5 199 Z " /><path fill="rgb(233,136,168)" stroke="rgb(233,136,168)" stroke-width="1" opacity="0.8666666666666667" d="M 148.5 200 L 149 204.5 L 148 204.5 L 148.5 200 Z " /><path fill="rgb(233,136,168)" stroke="rgb(233,136,168)" stroke-width="1" opacity="0.8666666666666667" d="M 200.5 200 L 202 200.5 L 196 204.5 L 191.5 214 L 191 212.5 Q 192.8 204.9 198.5 201 L 200.5 200 Z " /><path fill="rgb(233,136,168)" stroke="rgb(233,136,168)" stroke-width="1" opacity="0.8666666666666667" d="M 431.5 201 L 433 206.5 L 432 206.5 L 431.5 201 Z " /><path fill="rgb(233,136,168)" stroke="rgb(233,136,168)" stroke-width="1" opacity="0.8666666666666667" d="M 161.5 203 L 162 205.5 L 161 205.5 L 161.5 203 Z " /><path fill="rgb(233,136,168)" stroke="rgb(233,136,168)" stroke-width="1" opacity="0.8666666666666667" d="M 318.5 204 L 319 206.5 L 318 206.5 L 318.5 204 Z " /><path fill="rgb(233,136,168)" stroke="rgb(233,136,168)" stroke-width="1" opacity="0.8666666666666667" d="M 147.5 206 L 148 208.5 L 147 208.5 L 147.5 206 Z " /><path fill="rgb(233,136,168)" stroke="rgb(233,136,168)" stroke-width="1" opacity="0.8666666666666667" d="M 160.5 207 L 161 209.5 L 160 209.5 L 160.5 207 Z " /><path fill="rgb(233,136,168)" stroke="rgb(233,136,168)" stroke-width="1" opacity="0.8666666666666667" d="M 395.5 207 L 396 208.5 L 389.5 213 L 389.5 212 L 395 208.5 L 395.5 207 Z " /><path fill="rgb(233,136,168)" stroke="rgb(233,136,168)" stroke-width="1" opacity="0.8666666666666667" d="M 116.5 208 L 117 210.5 L 115.5 214 L 115 211.5 L 116.5 208 Z " /><path fill="rgb(233,136,168)" stroke="rgb(233,136,168)" stroke-width="1" opacity="0.8666666666666667" d="M 433.5 208 L 435 213.5 L 434 213.5 L 433.5 208 Z " /><path fill="rgb(233,136,168)" stroke="rgb(233,136,168)" stroke-width="1" opacity="0.8666666666666667" d="M 128.5 209 L 129 210.5 L 127.5 214 L 127 211.5 L 128.5 209 Z " /><path fill="rgb(233,136,168)" stroke="rgb(233,136,168)" stroke-width="1" opacity="0.8666666666666667" d="M 146.5 211 L 147 215.5 L 146 215.5 L 146.5 211 Z " /><path fill="rgb(233,136,168)" stroke="rgb(233,136,168)" stroke-width="1" opacity="0.8666666666666667" d="M 234.5 212 L 244 212.5 L 234.5 213 L 234.5 212 Z " /><path fill="rgb(233,136,168)" stroke="rgb(233,136,168)" stroke-width="1" opacity="0.8666666666666667" d="M 214.5 213 L 217 213.5 Q 210.3 214.8 207.5 220 L 212.5 214 L 214.5 213 Z " /><path fill="rgb(233,136,168)" stroke="rgb(233,136,168)" stroke-width="1" opacity="0.8666666666666667" d="M 159.5 214 L 160 216.5 L 159 216.5 L 159.5 214 Z " /><path fill="rgb(233,136,168)" stroke="rgb(233,136,168)" stroke-width="1" opacity="0.8666666666666667" d="M 254.5 214 L 255 217.5 L 254 217.5 L 254.5 214 Z " /><path fill="rgb(233,136,168)" stroke="rgb(233,136,168)" stroke-width="1" opacity="0.8666666666666667" d="M 421.5 215 Q 423.8 214.3 423 216.5 L 424 219.5 L 423 219.5 L 421.5 216 L 420 216.5 L 421.5 215 Z " /><path fill="rgb(233,136,168)" stroke="rgb(233,136,168)" stroke-width="1" opacity="0.8666666666666667" d="M 435.5 215 L 436 217.5 L 435 217.5 L 435.5 215 Z " /><path fill="rgb(233,136,168)" stroke="rgb(233,136,168)" stroke-width="1" opacity="0.8666666666666667" d="M 190.5 216 L 191 218.5 L 190 218.5 L 190.5 216 Z " /><path fill="rgb(233,136,168)" stroke="rgb(233,136,168)" stroke-width="1" opacity="0.8666666666666667" d="M 361.5 216 L 362 219.5 L 360.5 224 L 360 220.5 L 361.5 216 Z " /><path fill="rgb(233,136,168)" stroke="rgb(233,136,168)" stroke-width="1" opacity="0.8666666666666667" d="M 145.5 217 L 146 221.5 L 144.5 226 L 144 222.5 L 145.5 217 Z " /><path fill="rgb(233,136,168)" stroke="rgb(233,136,168)" stroke-width="1" opacity="0.8666666666666667" d="M 242.5 217 L 243 218.5 L 238.5 224 L 239 222.5 L 242.5 217 Z " /><path fill="rgb(233,136,168)" stroke="rgb(233,136,168)" stroke-width="1" opacity="0.8666666666666667" d="M 418.5 217 L 415.5 221 L 404.5 230 L 409.5 224 L 412.5 222 L 418.5 217 Z " /><path fill="rgb(233,136,168)" stroke="rgb(233,136,168)" stroke-width="1" opacity="0.8666666666666667" d="M 158.5 218 L 159 221.5 L 157.5 226 L 157 222.5 L 158.5 218 Z " /><path fill="rgb(233,136,168)" stroke="rgb(233,136,168)" stroke-width="1" opacity="0.8666666666666667" d="M 303.5 218 L 304 221.5 L 303 221.5 L 303.5 218 Z " /><path fill="rgb(233,136,168)" stroke="rgb(233,136,168)" stroke-width="1" opacity="0.8666666666666667" d="M 113.5 219 L 114 224.5 L 113 224.5 L 113.5 219 Z " /><path fill="rgb(233,136,168)" stroke="rgb(233,136,168)" stroke-width="1" opacity="0.8666666666666667" d="M 253.5 219 L 254 221.5 L 253 221.5 L 253.5 219 Z " /><path fill="rgb(233,136,168)" stroke="rgb(233,136,168)" stroke-width="1" opacity="0.8666666666666667" d="M 189.5 220 L 190 224.5 L 189 224.5 L 189.5 220 Z " /><path fill="rgb(233,136,168)" stroke="rgb(233,136,168)" stroke-width="1" opacity="0.8666666666666667" d="M 348.5 220 L 349 222.5 L 348 222.5 L 348.5 220 Z " /><path fill="rgb(233,136,168)" stroke="rgb(233,136,168)" stroke-width="1" opacity="0.8666666666666667" d="M 205.5 223 L 206 224.5 L 204.5 228 L 204 225.5 L 205.5 223 Z " /><path fill="rgb(233,136,168)" stroke="rgb(233,136,168)" stroke-width="1" opacity="0.8666666666666667" d="M 254.5 223 Q 257.5 225 257 230.5 L 256 230.5 L 254.5 223 Z " /><path fill="rgb(233,136,168)" stroke="rgb(233,136,168)" stroke-width="1" opacity="0.8666666666666667" d="M 315.5 223 L 316 225.5 L 315 225.5 L 315.5 223 Z " /><path fill="rgb(233,136,168)" stroke="rgb(233,136,168)" stroke-width="1" opacity="0.8666666666666667" d="M 435.5 223 L 436 226.5 L 434.5 232 L 434 227.5 L 435.5 223 Z " /><path fill="rgb(233,136,168)" stroke="rgb(233,136,168)" stroke-width="1" opacity="0.8666666666666667" d="M 125.5 224 L 126 226.5 L 125 226.5 L 125.5 224 Z " /><path fill="rgb(233,136,168)" stroke="rgb(233,136,168)" stroke-width="1" opacity="0.8666666666666667" d="M 302.5 224 L 303 228.5 L 302 228.5 L 302.5 224 Z " /><path fill="rgb(233,136,168)" stroke="rgb(233,136,168)" stroke-width="1" opacity="0.8666666666666667" d="M 423.5 225 L 424 229.5 L 422.5 233 L 422 230.5 L 423.5 225 Z " /><path fill="rgb(233,136,168)" stroke="rgb(233,136,168)" stroke-width="1" opacity="0.8666666666666667" d="M 114.5 227 L 115 230.5 L 114 230.5 L 114.5 227 Z " /><path fill="rgb(233,136,168)" stroke="rgb(233,136,168)" stroke-width="1" opacity="0.8666666666666667" d="M 188.5 227 L 189 230.5 L 188 230.5 L 188.5 227 Z " /><path fill="rgb(233,136,168)" stroke="rgb(233,136,168)" stroke-width="1" opacity="0.8666666666666667" d="M 359.5 227 L 361.5 230 L 370 235.5 L 368.5 235 L 359 228.5 L 359.5 227 Z " /><path fill="rgb(233,136,168)" stroke="rgb(233,136,168)" stroke-width="1" opacity="0.8666666666666667" d="M 125.5 228 Q 127.8 228.8 127 232.5 L 126 232.5 L 125.5 228 Z " /><path fill="rgb(233,136,168)" stroke="rgb(233,136,168)" stroke-width="1" opacity="0.8666666666666667" d="M 156.5 228 L 157 230.5 L 156 230.5 L 156.5 228 Z " /><path fill="rgb(233,136,168)" stroke="rgb(233,136,168)" stroke-width="1" opacity="0.8666666666666667" d="M 143.5 229 L 144 232.5 L 143 232.5 L 143.5 229 Z " /><path fill="rgb(233,136,168)" stroke="rgb(233,136,168)" stroke-width="1" opacity="0.8666666666666667" d="M 203.5 229 L 204 232.5 L 203 232.5 L 203.5 229 Z " /><path fill="rgb(233,136,168)" stroke="rgb(233,136,168)" stroke-width="1" opacity="0.8666666666666667" d="M 301.5 230 L 302 233.5 L 301 233.5 L 301.5 230 Z " /><path fill="rgb(233,136,168)" stroke="rgb(233,136,168)" stroke-width="1" opacity="0.8666666666666667" d="M 314.5 230 L 315 232.5 L 314 232.5 L 314.5 230 Z " /><path fill="rgb(233,136,168)" stroke="rgb(233,136,168)" stroke-width="1" opacity="0.8666666666666667" d="M 402.5 230 L 396.5 237 L 387 244 Q 385.5 247.8 388.5 247 L 389.5 249 L 386 246.5 L 387.5 243 L 402.5 230 Z " /><path fill="rgb(233,136,168)" stroke="rgb(233,136,168)" stroke-width="1" opacity="0.8666666666666667" d="M 115.5 232 L 117 239.5 L 116 239.5 L 115.5 232 Z " /><path fill="rgb(233,136,168)" stroke="rgb(233,136,168)" stroke-width="1" opacity="0.8666666666666667" d="M 236.5 232 L 227 242.5 Q 227.8 244.8 225.5 244 L 221.5 249 L 220 248.5 L 223 247 L 223 245.5 L 236.5 232 Z " /><path fill="rgb(233,136,168)" stroke="rgb(233,136,168)" stroke-width="1" opacity="0.8666666666666667" d="M 155.5 233 L 156 236.5 L 155 236.5 L 155.5 233 Z " /><path fill="rgb(233,136,168)" stroke="rgb(233,136,168)" stroke-width="1" opacity="0.8666666666666667" d="M 187.5 233 L 188 235.5 L 187 235.5 L 187.5 233 Z " /><path fill="rgb(233,136,168)" stroke="rgb(233,136,168)" stroke-width="1" opacity="0.8666666666666667" d="M 256.5 233 L 274 254.5 L 268 249.5 L 257 235.5 L 256.5 233 Z " /><path fill="rgb(233,136,168)" stroke="rgb(233,136,168)" stroke-width="1" opacity="0.8666666666666667" d="M 433.5 233 L 434 236.5 L 433 236.5 L 433.5 233 Z " /><path fill="rgb(233,136,168)" stroke="rgb(233,136,168)" stroke-width="1" opacity="0.8666666666666667" d="M 127.5 234 L 129 240.5 L 128 240.5 L 127.5 234 Z " /><path fill="rgb(233,136,168)" stroke="rgb(233,136,168)" stroke-width="1" opacity="0.8666666666666667" d="M 142.5 234 L 143 237.5 L 142 237.5 L 142.5 234 Z " /><path fill="rgb(233,136,168)" stroke="rgb(233,136,168)" stroke-width="1" opacity="0.8666666666666667" d="M 421.5 234 L 422 236.5 L 421 236.5 L 421.5 234 Z " /><path fill="rgb(233,136,168)" stroke="rgb(233,136,168)" stroke-width="1" opacity="0.8666666666666667" d="M 202.5 235 L 203 238.5 L 202 238.5 L 202.5 235 Z " /><path fill="rgb(233,136,168)" stroke="rgb(233,136,168)" stroke-width="1" opacity="0.8666666666666667" d="M 300.5 236 L 301 241.5 L 300 241.5 L 300.5 236 Z " /><path fill="rgb(233,136,168)" stroke="rgb(233,136,168)" stroke-width="1" opacity="0.8666666666666667" d="M 371.5 236 L 372.5 238 L 371.5 236 Z " /><path fill="rgb(233,136,168)" stroke="rgb(233,136,168)" stroke-width="1" opacity="0.8666666666666667" d="M 242.5 237 L 249.5 238 L 251 239.5 L 249.5 239 Q 243 240 242.5 237 Z " /><path fill="rgb(233,136,168)" stroke="rgb(233,136,168)" stroke-width="1" opacity="0.8666666666666667" d="M 380.5 237 L 377.5 241 L 380.5 237 Z " /><path fill="rgb(233,136,168)" stroke="rgb(233,136,168)" stroke-width="1" opacity="0.8666666666666667" d="M 154.5 238 L 155 241.5 L 154 241.5 L 154.5 238 Z " /><path fill="rgb(233,136,168)" stroke="rgb(233,136,168)" stroke-width="1" opacity="0.8666666666666667" d="M 345.5 238 L 346 241.5 L 345 241.5 L 345.5 238 Z " /><path fill="rgb(233,136,168)" stroke="rgb(233,136,168)" stroke-width="1" opacity="0.8666666666666667" d="M 357 238 L 359 238.5 L 357 239.5 L 357 238 Z " /><path fill="rgb(233,136,168)" stroke="rgb(233,136,168)" stroke-width="1" opacity="0.8666666666666667" d="M 374.5 238 L 375.5 240 L 374.5 238 Z " /><path fill="rgb(233,136,168)" stroke="rgb(233,136,168)" stroke-width="1" opacity="0.8666666666666667" d="M 240.5 239 L 231.5 249 L 237 242.5 L 238.5 240 L 240.5 239 Z " /><path fill="rgb(233,136,168)" stroke="rgb(233,136,168)" stroke-width="1" opacity="0.8666666666666667" d="M 360.5 239 L 367 243.5 L 365.5 243 Q 360.9 241.8 360.5 239 Z " /><path fill="rgb(233,136,168)" stroke="rgb(233,136,168)" stroke-width="1" opacity="0.8666666666666667" d="M 420.5 239 L 421 243.5 L 420 243.5 L 420.5 239 Z " /><path fill="rgb(233,136,168)" stroke="rgb(233,136,168)" stroke-width="1" opacity="0.8666666666666667" d="M 432.5 239 L 433 241.5 L 432 241.5 L 432.5 239 Z " /><path fill="rgb(233,136,168)" stroke="rgb(233,136,168)" stroke-width="1" opacity="0.8666666666666667" d="M 141.5 240 L 142 243.5 L 141 243.5 L 141.5 240 Z " /><path fill="rgb(233,136,168)" stroke="rgb(233,136,168)" stroke-width="1" opacity="0.8666666666666667" d="M 186.5 240 L 187 243.5 L 185.5 247 L 185 244.5 L 186.5 240 Z " /><path fill="rgb(233,136,168)" stroke="rgb(233,136,168)" stroke-width="1" opacity="0.8666666666666667" d="M 201.5 240 L 202 244.5 L 200.5 252 L 200 245.5 L 201.5 240 Z " /><path fill="rgb(233,136,168)" stroke="rgb(233,136,168)" stroke-width="1" opacity="0.8666666666666667" d="M 251.5 241 L 258 248.5 L 255 246.5 L 251.5 241 Z " /><path fill="rgb(233,136,168)" stroke="rgb(233,136,168)" stroke-width="1" opacity="0.8666666666666667" d="M 356.5 242 L 357 245.5 L 356 245.5 L 356.5 242 Z " /><path fill="rgb(233,136,168)" stroke="rgb(233,136,168)" stroke-width="1" opacity="0.8666666666666667" d="M 117.5 243 L 118 245.5 L 117 245.5 L 117.5 243 Z " /><path fill="rgb(233,136,168)" stroke="rgb(233,136,168)" stroke-width="1" opacity="0.8666666666666667" d="M 153.5 243 L 154 247.5 L 153 247.5 L 153.5 243 Z " /><path fill="rgb(233,136,168)" stroke="rgb(233,136,168)" stroke-width="1" opacity="0.8666666666666667" d="M 299.5 243 L 300 247.5 L 298.5 253 L 298 248.5 L 299.5 243 Z " /><path fill="rgb(233,136,168)" stroke="rgb(233,136,168)" stroke-width="1" opacity="0.8666666666666667" d="M 368.5 244 L 373 247.5 L 372.5 290 L 372 247.5 L 370.5 246 L 368.5 244 Z " /><path fill="rgb(233,136,168)" stroke="rgb(233,136,168)" stroke-width="1" opacity="0.8666666666666667" d="M 431.5 244 L 432 247.5 L 430.5 253 L 430 248.5 L 431.5 244 Z " /><path fill="rgb(233,136,168)" stroke="rgb(233,136,168)" stroke-width="1" opacity="0.8666666666666667" d="M 419.5 245 L 420 249.5 L 418.5 255 L 418 250.5 L 419.5 245 Z " /><path fill="rgb(233,136,168)" stroke="rgb(233,136,168)" stroke-width="1" opacity="0.8666666666666667" d="M 140.5 247 L 141 251.5 L 140 251.5 L 140.5 247 Z " /><path fill="rgb(233,136,168)" stroke="rgb(233,136,168)" stroke-width="1" opacity="0.8666666666666667" d="M 118.5 248 L 119 250.5 L 118 250.5 L 118.5 248 Z " /><path fill="rgb(233,136,168)" stroke="rgb(233,136,168)" stroke-width="1" opacity="0.8666666666666667" d="M 130.5 248 L 132 254.5 L 131 254.5 L 130.5 248 Z " /><path fill="rgb(233,136,168)" stroke="rgb(233,136,168)" stroke-width="1" opacity="0.8666666666666667" d="M 184.5 248 L 185 250.5 L 184 250.5 L 184.5 248 Z " /><path fill="rgb(233,136,168)" stroke="rgb(233,136,168)" stroke-width="1" opacity="0.8666666666666667" d="M 355.5 248 L 356 251.5 L 355 251.5 L 355.5 248 Z " /><path fill="rgb(233,136,168)" stroke="rgb(233,136,168)" stroke-width="1" opacity="0.8666666666666667" d="M 311.5 249 L 312 251.5 L 311 251.5 L 311.5 249 Z " /><path fill="rgb(233,136,168)" stroke="rgb(233,136,168)" stroke-width="1" opacity="0.8666666666666667" d="M 391.5 249 L 392.5 251 L 391.5 249 Z " /><path fill="rgb(233,136,168)" stroke="rgb(233,136,168)" stroke-width="1" opacity="0.8666666666666667" d="M 219.5 250 L 218.5 252 L 217 251.5 L 219.5 250 Z " /><path fill="rgb(233,136,168)" stroke="rgb(233,136,168)" stroke-width="1" opacity="0.8666666666666667" d="M 229 250 L 231 250.5 L 224 256.5 L 229 250 Z " /><path fill="rgb(233,136,168)" stroke="rgb(233,136,168)" stroke-width="1" opacity="0.8666666666666667" d="M 258.5 250 L 260.5 253 L 258.5 250 Z " /><path fill="rgb(233,136,168)" stroke="rgb(233,136,168)" stroke-width="1" opacity="0.8666666666666667" d="M 394.5 251 L 398 253.5 L 396.5 253 L 394.5 251 Z " /><path fill="rgb(233,136,168)" stroke="rgb(233,136,168)" stroke-width="1" opacity="0.8666666666666667" d="M 152.5 252 L 153 255.5 L 152 255.5 L 152.5 252 Z " /><path fill="rgb(233,136,168)" stroke="rgb(233,136,168)" stroke-width="1" opacity="0.8666666666666667" d="M 139.5 253 L 140 267.5 L 139 267.5 L 139.5 253 Z " /><path fill="rgb(233,136,168)" stroke="rgb(233,136,168)" stroke-width="1" opacity="0.8666666666666667" d="M 183.5 253 L 184 255.5 L 183 255.5 L 183.5 253 Z " /><path fill="rgb(233,136,168)" stroke="rgb(233,136,168)" stroke-width="1" opacity="0.8666666666666667" d="M 216.5 253 L 212.5 258 L 209.5 259 L 210.5 257 L 216.5 253 Z " /><path fill="rgb(233,136,168)" stroke="rgb(233,136,168)" stroke-width="1" opacity="0.8666666666666667" d="M 354.5 253 L 355 256.5 L 354 256.5 L 354.5 253 Z " /><path fill="rgb(233,136,168)" stroke="rgb(233,136,168)" stroke-width="1" opacity="0.8666666666666667" d="M 381.5 253 L 390 258.5 L 387.5 257 L 381 254 L 380.5 290 L 380 254.5 L 381.5 253 Z " /><path fill="rgb(233,136,168)" stroke="rgb(233,136,168)" stroke-width="1" opacity="0.8666666666666667" d="M 261.5 254 L 263.5 257 L 261.5 254 Z " /><path fill="rgb(233,136,168)" stroke="rgb(233,136,168)" stroke-width="1" opacity="0.8666666666666667" d="M 399.5 254 L 400.5 256 L 399.5 254 Z " /><path fill="rgb(233,136,168)" stroke="rgb(233,136,168)" stroke-width="1" opacity="0.8666666666666667" d="M 120.5 255 L 122 261.5 L 121 261.5 L 120.5 255 Z " /><path fill="rgb(233,136,168)" stroke="rgb(233,136,168)" stroke-width="1" opacity="0.8666666666666667" d="M 202.5 255 L 203.5 257 L 202.5 255 Z " /><path fill="rgb(233,136,168)" stroke="rgb(233,136,168)" stroke-width="1" opacity="0.8666666666666667" d="M 297.5 255 L 298 257.5 L 297 257.5 L 297.5 255 Z " /><path fill="rgb(233,136,168)" stroke="rgb(233,136,168)" stroke-width="1" opacity="0.8666666666666667" d="M 132.5 256 L 133 258.5 L 132 258.5 L 132.5 256 Z " /><path fill="rgb(233,136,168)" stroke="rgb(233,136,168)" stroke-width="1" opacity="0.8666666666666667" d="M 274.5 256 L 277 259.5 L 276 259.5 L 274.5 256 Z " /><path fill="rgb(233,136,168)" stroke="rgb(233,136,168)" stroke-width="1" opacity="0.8666666666666667" d="M 402.5 256 L 406 258.5 L 404.5 258 L 402.5 256 Z " /><path fill="rgb(233,136,168)" stroke="rgb(233,136,168)" stroke-width="1" opacity="0.8666666666666667" d="M 417.5 256 L 418 258.5 L 417 258.5 L 417.5 256 Z " /><path fill="rgb(233,136,168)" stroke="rgb(233,136,168)" stroke-width="1" opacity="0.8666666666666667" d="M 429.5 256 L 430 258.5 L 429 258.5 L 429.5 256 Z " /><path fill="rgb(233,136,168)" stroke="rgb(233,136,168)" stroke-width="1" opacity="0.8666666666666667" d="M 182.5 257 L 183 262.5 L 182 262.5 L 182.5 257 Z " /><path fill="rgb(233,136,168)" stroke="rgb(233,136,168)" stroke-width="1" opacity="0.8666666666666667" d="M 205.5 257 L 208 257.5 L 205.5 258 L 205.5 257 Z " /><path fill="rgb(233,136,168)" stroke="rgb(233,136,168)" stroke-width="1" opacity="0.8666666666666667" d="M 224.5 258 L 264 258.5 L 224.5 259 L 224.5 258 Z " /><path fill="rgb(233,136,168)" stroke="rgb(233,136,168)" stroke-width="1" opacity="0.8666666666666667" d="M 353.5 258 L 354 262.5 L 353 262.5 L 353.5 258 Z " /><path fill="rgb(233,136,168)" stroke="rgb(233,136,168)" stroke-width="1" opacity="0.8666666666666667" d="M 391.5 259 L 398 263.5 L 396.5 263 Q 391.9 261.8 391.5 259 Z " /><path fill="rgb(233,136,168)" stroke="rgb(233,136,168)" stroke-width="1" opacity="0.8666666666666667" d="M 407.5 259 L 415.5 264 L 417 263.5 Q 415.8 266.3 414.5 264 Q 408.3 262.6 407.5 259 Z " /><path fill="rgb(233,136,168)" stroke="rgb(233,136,168)" stroke-width="1" opacity="0.8666666666666667" d="M 133.5 260 L 134 262.5 L 133 262.5 L 133.5 260 Z " /><path fill="rgb(233,136,168)" stroke="rgb(233,136,168)" stroke-width="1" opacity="0.8666666666666667" d="M 151.5 260 L 152 265.5 L 151 265.5 L 151.5 260 Z " /><path fill="rgb(233,136,168)" stroke="rgb(233,136,168)" stroke-width="1" opacity="0.8666666666666667" d="M 428.5 260 L 429 263.5 L 428 263.5 L 428.5 260 Z " /><path fill="rgb(233,136,168)" stroke="rgb(233,136,168)" stroke-width="1" opacity="0.8666666666666667" d="M 296.5 261 L 297 265.5 L 296 265.5 L 296.5 261 Z " /><path fill="rgb(233,136,168)" stroke="rgb(233,136,168)" stroke-width="1" opacity="0.8666666666666667" d="M 276.5 263 L 277 265.5 L 276 265.5 L 276.5 263 Z " /><path fill="rgb(233,136,168)" stroke="rgb(233,136,168)" stroke-width="1" opacity="0.8666666666666667" d="M 122.5 264 L 124 269.5 L 123 269.5 L 122.5 264 Z " /><path fill="rgb(233,136,168)" stroke="rgb(233,136,168)" stroke-width="1" opacity="0.8666666666666667" d="M 134.5 264 L 136 269.5 L 135 269.5 L 134.5 264 Z " /><path fill="rgb(233,136,168)" stroke="rgb(233,136,168)" stroke-width="1" opacity="0.8666666666666667" d="M 399.5 264 L 404 267.5 L 402.5 267 L 399.5 264 Z " /><path fill="rgb(233,136,168)" stroke="rgb(233,136,168)" stroke-width="1" opacity="0.8666666666666667" d="M 352.5 265 L 353 268.5 L 352 268.5 L 352.5 265 Z " /><path fill="rgb(233,136,168)" stroke="rgb(233,136,168)" stroke-width="1" opacity="0.8666666666666667" d="M 427.5 265 L 428 268.5 L 427 268.5 L 427.5 265 Z " /><path fill="rgb(233,136,168)" stroke="rgb(233,136,168)" stroke-width="1" opacity="0.8666666666666667" d="M 184.5 266 L 191 270.5 L 189.5 271 L 184.5 266 Z " /><path fill="rgb(233,136,168)" stroke="rgb(233,136,168)" stroke-width="1" opacity="0.8666666666666667" d="M 295.5 267 L 296 271.5 L 295 271.5 L 295.5 267 Z " /><path fill="rgb(233,136,168)" stroke="rgb(233,136,168)" stroke-width="1" opacity="0.8666666666666667" d="M 405.5 268 L 414 273.5 L 412.5 274 L 406.5 270 L 405.5 268 Z " /><path fill="rgb(233,136,168)" stroke="rgb(233,136,168)" stroke-width="1" opacity="0.8666666666666667" d="M 152.5 269 L 153 273.5 L 152 273.5 L 152.5 269 Z " /><path fill="rgb(233,136,168)" stroke="rgb(233,136,168)" stroke-width="1" opacity="0.8666666666666667" d="M 275.5 269 L 276 273.5 L 274.5 280 L 274 274.5 L 275.5 269 Z " /><path fill="rgb(233,136,168)" stroke="rgb(233,136,168)" stroke-width="1" opacity="0.8666666666666667" d="M 140.5 270 L 141 273.5 L 140 273.5 L 140.5 270 Z " /><path fill="rgb(233,136,168)" stroke="rgb(233,136,168)" stroke-width="1" opacity="0.8666666666666667" d="M 351.5 270 L 352 273.5 L 351 273.5 L 351.5 270 Z " /><path fill="rgb(233,136,168)" stroke="rgb(233,136,168)" stroke-width="1" opacity="0.8666666666666667" d="M 426.5 270 L 427 273.5 L 426 273.5 L 426.5 270 Z " /><path fill="rgb(233,136,168)" stroke="rgb(233,136,168)" stroke-width="1" opacity="0.8666666666666667" d="M 192.5 271 L 196 271.5 L 192.5 272 L 192.5 271 Z " /><path fill="rgb(233,136,168)" stroke="rgb(233,136,168)" stroke-width="1" opacity="0.8666666666666667" d="M 208.5 271 L 259.5 271 L 261 272.5 L 260.5 277 L 260 272 L 208.5 272 L 208.5 271 Z " /><path fill="rgb(233,136,168)" stroke="rgb(233,136,168)" stroke-width="1" opacity="0.8666666666666667" d="M 294.5 273 L 295 276.5 L 294 276.5 L 294.5 273 Z " /><path fill="rgb(233,136,168)" stroke="rgb(233,136,168)" stroke-width="1" opacity="0.8666666666666667" d="M 125.5 275 L 126 277.5 L 125 277.5 L 125.5 275 Z " /><path fill="rgb(233,136,168)" stroke="rgb(233,136,168)" stroke-width="1" opacity="0.8666666666666667" d="M 137.5 275 L 140.5 279 L 141.5 277 L 142 278.5 L 140.5 280 L 137 276.5 L 137.5 275 Z " /><path fill="rgb(233,136,168)" stroke="rgb(233,136,168)" stroke-width="1" opacity="0.8666666666666667" d="M 350.5 275 L 351 278.5 L 349 279.5 L 350.5 275 Z " /><path fill="rgb(233,136,168)" stroke="rgb(233,136,168)" stroke-width="1" opacity="0.8666666666666667" d="M 414.5 275 L 410.5 280 L 414.5 275 Z " /><path fill="rgb(233,136,168)" stroke="rgb(233,136,168)" stroke-width="1" opacity="0.8666666666666667" d="M 425.5 276 L 426 278.5 L 425 278.5 L 425.5 276 Z " /><path fill="rgb(233,136,168)" stroke="rgb(233,136,168)" stroke-width="1" opacity="0.8666666666666667" d="M 154.5 278 L 156 280.5 L 154 279.5 L 154.5 278 Z " /><path fill="rgb(233,136,168)" stroke="rgb(233,136,168)" stroke-width="1" opacity="0.8666666666666667" d="M 259.5 278 L 260 282.5 L 259 282.5 L 259.5 278 Z " /><path fill="rgb(233,136,168)" stroke="rgb(233,136,168)" stroke-width="1" opacity="0.8666666666666667" d="M 126.5 279 L 127 281.5 L 126 281.5 L 126.5 279 Z " /><path fill="rgb(233,136,168)" stroke="rgb(233,136,168)" stroke-width="1" opacity="0.8666666666666667" d="M 293.5 280 L 294 283.5 L 293 283.5 L 293.5 280 Z " /><path fill="rgb(233,136,168)" stroke="rgb(233,136,168)" stroke-width="1" opacity="0.8666666666666667" d="M 408.5 280 L 398.5 291 L 408.5 280 Z " /><path fill="rgb(233,136,168)" stroke="rgb(233,136,168)" stroke-width="1" opacity="0.8666666666666667" d="M 424.5 280 L 425 281.5 L 417.5 288 L 417.5 287 L 424 281.5 L 424.5 280 Z " /><path fill="rgb(233,136,168)" stroke="rgb(233,136,168)" stroke-width="1" opacity="0.8666666666666667" d="M 273.5 281 L 274 286.5 L 273 286.5 L 273.5 281 Z " /><path fill="rgb(233,136,168)" stroke="rgb(233,136,168)" stroke-width="1" opacity="0.8666666666666667" d="M 349.5 281 L 350 283.5 L 349 283.5 L 349.5 281 Z " /><path fill="rgb(233,136,168)" stroke="rgb(233,136,168)" stroke-width="1" opacity="0.8666666666666667" d="M 156.5 282 L 162 290 L 167 293.5 L 165.5 293 L 162.5 291 L 157 284.5 L 156.5 282 Z " /><path fill="rgb(233,136,168)" stroke="rgb(233,136,168)" stroke-width="1" opacity="0.8666666666666667" d="M 127.5 283 L 182 338.5 L 129 286.5 L 127.5 283 Z " /><path fill="rgb(233,136,168)" stroke="rgb(233,136,168)" stroke-width="1" opacity="0.8666666666666667" d="M 258.5 284 L 259 289.5 L 258 289.5 L 258.5 284 Z " /><path fill="rgb(233,136,168)" stroke="rgb(233,136,168)" stroke-width="1" opacity="0.8666666666666667" d="M 292.5 285 L 293 289.5 L 292 289.5 L 292.5 285 Z " /><path fill="rgb(233,136,168)" stroke="rgb(233,136,168)" stroke-width="1" opacity="0.8666666666666667" d="M 348.5 286 L 349 288.5 L 347.5 292 L 347 289.5 L 348.5 286 Z " /><path fill="rgb(233,136,168)" stroke="rgb(233,136,168)" stroke-width="1" opacity="0.8666666666666667" d="M 415 289 L 417 289.5 L 415 290.5 L 415 289 Z " /><path fill="rgb(233,136,168)" stroke="rgb(233,136,168)" stroke-width="1" opacity="0.8666666666666667" d="M 272.5 291 L 273 295.5 L 272 295.5 L 272.5 291 Z " /><path fill="rgb(233,136,168)" stroke="rgb(233,136,168)" stroke-width="1" opacity="0.8666666666666667" d="M 368.5 291 L 367 293.5 L 364.5 298 L 364 296.5 L 368.5 291 Z " /><path fill="rgb(233,136,168)" stroke="rgb(233,136,168)" stroke-width="1" opacity="0.8666666666666667" d="M 381.5 291 L 386 294.5 L 387 296.5 L 385 295.5 L 382.5 292 L 381.5 291 Z " /><path fill="rgb(233,136,168)" stroke="rgb(233,136,168)" stroke-width="1" opacity="0.8666666666666667" d="M 413.5 291 L 398.5 307 L 389.5 315 L 399.5 304 L 413.5 291 Z " /><path fill="rgb(233,136,168)" stroke="rgb(233,136,168)" stroke-width="1" opacity="0.8666666666666667" d="M 291.5 292 L 292 294.5 L 291 294.5 L 291.5 292 Z " /><path fill="rgb(233,136,168)" stroke="rgb(233,136,168)" stroke-width="1" opacity="0.8666666666666667" d="M 396.5 292 L 395.5 294 L 396.5 292 Z " /><path fill="rgb(233,136,168)" stroke="rgb(233,136,168)" stroke-width="1" opacity="0.8666666666666667" d="M 257.5 293 L 258 296.5 L 257 296.5 L 257.5 293 Z " /><path fill="rgb(233,136,168)" stroke="rgb(233,136,168)" stroke-width="1" opacity="0.8666666666666667" d="M 346.5 293 L 347 296.5 L 346 296.5 L 346.5 293 Z " /><path fill="rgb(233,136,168)" stroke="rgb(233,136,168)" stroke-width="1" opacity="0.8666666666666667" d="M 168.5 294 L 175 297.5 L 173.5 298 Q 168.9 296.8 168.5 294 Z " /><path fill="rgb(233,136,168)" stroke="rgb(233,136,168)" stroke-width="1" opacity="0.8666666666666667" d="M 335.5 296 L 336 298.5 L 335 298.5 L 335.5 296 Z " /><path fill="rgb(233,136,168)" stroke="rgb(233,136,168)" stroke-width="1" opacity="0.8666666666666667" d="M 390.5 297 L 391 299 L 387 300 L 387.5 298 Q 389 300.5 390.5 297 Z " /><path fill="rgb(233,136,168)" stroke="rgb(233,136,168)" stroke-width="1" opacity="0.8666666666666667" d="M 271.5 298 L 272 303.5 L 270.5 311 L 270 304.5 L 271.5 298 Z " /><path fill="rgb(233,136,168)" stroke="rgb(233,136,168)" stroke-width="1" opacity="0.8666666666666667" d="M 290.5 298 L 291 303.5 Q 288.5 305 290 310.5 L 296 318.5 L 293 316.5 L 289 310.5 L 289 304.5 L 290.5 298 Z " /><path fill="rgb(233,136,168)" stroke="rgb(233,136,168)" stroke-width="1" opacity="0.8666666666666667" d="M 179.5 299 L 187 300.5 L 182.5 301 L 179.5 300 L 179.5 299 Z " /><path fill="rgb(233,136,168)" stroke="rgb(233,136,168)" stroke-width="1" opacity="0.8666666666666667" d="M 345.5 299 L 346 301.5 L 343 309 L 339.5 311 L 343 306.5 L 345.5 299 Z " /><path fill="rgb(233,136,168)" stroke="rgb(233,136,168)" stroke-width="1" opacity="0.8666666666666667" d="M 364.5 302 Q 365.5 308 370 310.5 L 365 306.5 L 364.5 302 Z " /><path fill="rgb(233,136,168)" stroke="rgb(233,136,168)" stroke-width="1" opacity="0.8666666666666667" d="M 171 310 L 173 310.5 L 172 311.5 L 183 322.5 L 187 327.5 L 180 321.5 Q 180.8 319.3 178.5 320 L 177 317 L 175 317 L 175 315 Q 172.3 316.1 173 313.5 L 171 310 Z " /><path fill="rgb(233,136,168)" stroke="rgb(233,136,168)" stroke-width="1" opacity="0.8666666666666667" d="M 175.5 311 L 181 312.5 L 177.5 313 L 175.5 311 Z " /><path fill="rgb(233,136,168)" stroke="rgb(233,136,168)" stroke-width="1" opacity="0.8666666666666667" d="M 371.5 311 L 374 312.5 L 357.5 324 L 358.5 322 L 373 312.5 L 371.5 311 Z " /><path fill="rgb(233,136,168)" stroke="rgb(233,136,168)" stroke-width="1" opacity="0.8666666666666667" d="M 185.5 313 L 203 313.5 L 185.5 314 L 185.5 313 Z " /><path fill="rgb(233,136,168)" stroke="rgb(233,136,168)" stroke-width="1" opacity="0.8666666666666667" d="M 305.5 313 L 331 313.5 L 305.5 314 L 305.5 313 Z " /><path fill="rgb(233,136,168)" stroke="rgb(233,136,168)" stroke-width="1" opacity="0.8666666666666667" d="M 206.5 315 L 201.5 321 L 206.5 315 Z " /><path fill="rgb(233,136,168)" stroke="rgb(233,136,168)" stroke-width="1" opacity="0.8666666666666667" d="M 306.5 315 L 314.5 325 L 318 326.5 L 316.5 326 L 314.5 326 L 310 321.5 L 306.5 315 Z " /><path fill="rgb(233,136,168)" stroke="rgb(233,136,168)" stroke-width="1" opacity="0.8666666666666667" d="M 387.5 315 L 385.5 318 L 376.5 324 L 378.5 321 L 387.5 315 Z " /><path fill="rgb(233,136,168)" stroke="rgb(233,136,168)" stroke-width="1" opacity="0.8666666666666667" d="M 219.5 316 L 210.5 326 L 219.5 316 Z " /><path fill="rgb(233,136,168)" stroke="rgb(233,136,168)" stroke-width="1" opacity="0.8666666666666667" d="M 269.5 316 L 270 318.5 L 269 318.5 L 269.5 316 Z " /><path fill="rgb(233,136,168)" stroke="rgb(233,136,168)" stroke-width="1" opacity="0.8666666666666667" d="M 258.5 319 L 258 320.5 L 257.5 323 L 257 320.5 L 258.5 319 Z " /><path fill="rgb(233,136,168)" stroke="rgb(233,136,168)" stroke-width="1" opacity="0.8666666666666667" d="M 296.5 320 L 301 325.5 L 298 323.5 L 296.5 320 Z " /><path fill="rgb(233,136,168)" stroke="rgb(233,136,168)" stroke-width="1" opacity="0.8666666666666667" d="M 199.5 322 L 193.5 329 L 199.5 322 Z " /><path fill="rgb(233,136,168)" stroke="rgb(233,136,168)" stroke-width="1" opacity="0.8666666666666667" d="M 268.5 322 L 269 328.5 L 268 332.5 L 282 349.5 L 277 345.5 L 267 332.5 L 267 329.5 L 268.5 322 Z " /><path fill="rgb(233,136,168)" stroke="rgb(233,136,168)" stroke-width="1" opacity="0.8666666666666667" d="M 355.5 324 L 354.5 326 L 355.5 324 Z " /><path fill="rgb(233,136,168)" stroke="rgb(233,136,168)" stroke-width="1" opacity="0.8666666666666667" d="M 374.5 324 L 373.5 326 L 367.5 330 L 369.5 327 L 374.5 324 Z " /><path fill="rgb(233,136,168)" stroke="rgb(233,136,168)" stroke-width="1" opacity="0.8666666666666667" d="M 352.5 326 L 351.5 328 L 352.5 326 Z " /><path fill="rgb(233,136,168)" stroke="rgb(233,136,168)" stroke-width="1" opacity="0.8666666666666667" d="M 208.5 327 L 207.5 329 L 208.5 327 Z " /><path fill="rgb(233,136,168)" stroke="rgb(233,136,168)" stroke-width="1" opacity="0.8666666666666667" d="M 301.5 327 L 303.5 330 L 301.5 327 Z " /><path fill="rgb(233,136,168)" stroke="rgb(233,136,168)" stroke-width="1" opacity="0.8666666666666667" d="M 319.5 327 L 320.5 329 L 319.5 327 Z " /><path fill="rgb(233,136,168)" stroke="rgb(233,136,168)" stroke-width="1" opacity="0.8666666666666667" d="M 188.5 328 L 191 328.5 L 188.5 329 L 188.5 328 Z " /><path fill="rgb(233,136,168)" stroke="rgb(233,136,168)" stroke-width="1" opacity="0.8666666666666667" d="M 349.5 328 L 348.5 330 L 342.5 334 L 344.5 331 L 349.5 328 Z " /><path fill="rgb(233,136,168)" stroke="rgb(233,136,168)" stroke-width="1" opacity="0.8666666666666667" d="M 206.5 330 L 205.5 332 L 206.5 330 Z " /><path fill="rgb(233,136,168)" stroke="rgb(233,136,168)" stroke-width="1" opacity="0.8666666666666667" d="M 321.5 330 L 322.5 332 L 321.5 330 Z " /><path fill="rgb(233,136,168)" stroke="rgb(233,136,168)" stroke-width="1" opacity="0.8666666666666667" d="M 365.5 330 L 364.5 332 L 365.5 330 Z " /><path fill="rgb(233,136,168)" stroke="rgb(233,136,168)" stroke-width="1" opacity="0.8666666666666667" d="M 256.5 331 L 257 337.5 L 254 339.5 L 256 337.5 L 256.5 331 Z " /><path fill="rgb(233,136,168)" stroke="rgb(233,136,168)" stroke-width="1" opacity="0.8666666666666667" d="M 207.5 332 L 210 332.5 L 207.5 333 L 207.5 332 Z " /><path fill="rgb(233,136,168)" stroke="rgb(233,136,168)" stroke-width="1" opacity="0.8666666666666667" d="M 362.5 332 L 361.5 334 L 362.5 332 Z " /><path fill="rgb(233,136,168)" stroke="rgb(233,136,168)" stroke-width="1" opacity="0.8666666666666667" d="M 212.5 333 L 216 333.5 L 212.5 334 L 212.5 333 Z " /><path fill="rgb(233,136,168)" stroke="rgb(233,136,168)" stroke-width="1" opacity="0.8666666666666667" d="M 219.5 334 L 222 334.5 L 219.5 335 L 219.5 334 Z " /><path fill="rgb(233,136,168)" stroke="rgb(233,136,168)" stroke-width="1" opacity="0.8666666666666667" d="M 302.5 334 L 304 339.5 L 307 343.5 L 305 342.5 Q 301.8 339.4 302.5 334 Z " /><path fill="rgb(233,136,168)" stroke="rgb(233,136,168)" stroke-width="1" opacity="0.8666666666666667" d="M 359.5 334 L 358.5 336 L 350.5 341 L 351.5 339 L 359.5 334 Z " /><path fill="rgb(233,136,168)" stroke="rgb(233,136,168)" stroke-width="1" opacity="0.8666666666666667" d="M 224.5 335 L 227 335.5 L 224.5 336 L 224.5 335 Z " /><path fill="rgb(233,136,168)" stroke="rgb(233,136,168)" stroke-width="1" opacity="0.8666666666666667" d="M 332.5 335 L 338 335.5 L 332.5 336 L 332.5 335 Z " /><path fill="rgb(233,136,168)" stroke="rgb(233,136,168)" stroke-width="1" opacity="0.8666666666666667" d="M 228.5 336 Q 232.3 335.3 233 337.5 L 231.5 337 Q 227.5 337.8 228.5 336 Z " /><path fill="rgb(233,136,168)" stroke="rgb(233,136,168)" stroke-width="1" opacity="0.8666666666666667" d="M 324.5 336 L 330 336.5 L 324.5 337 L 324.5 336 Z " /><path fill="rgb(233,136,168)" stroke="rgb(233,136,168)" stroke-width="1" opacity="0.8666666666666667" d="M 234.5 337 L 238 337.5 L 234.5 338 L 234.5 337 Z " /><path fill="rgb(233,136,168)" stroke="rgb(233,136,168)" stroke-width="1" opacity="0.8666666666666667" d="M 240.5 338 L 244 338.5 L 240.5 339 L 240.5 338 Z " /><path fill="rgb(233,136,168)" stroke="rgb(233,136,168)" stroke-width="1" opacity="0.8666666666666667" d="M 183.5 339 L 186 339.5 L 183.5 340 L 183.5 339 Z " /><path fill="rgb(233,136,168)" stroke="rgb(233,136,168)" stroke-width="1" opacity="0.8666666666666667" d="M 245.5 339 L 248 339.5 L 245.5 340 L 245.5 339 Z " /><path fill="rgb(233,136,168)" stroke="rgb(233,136,168)" stroke-width="1" opacity="0.8666666666666667" d="M 250.5 340 L 253 340.5 L 250.5 341 L 250.5 340 Z " /><path fill="rgb(233,136,168)" stroke="rgb(233,136,168)" stroke-width="1" opacity="0.8666666666666667" d="M 193.5 341 L 201 342.5 L 198.5 343 L 193.5 342 L 193.5 341 Z " /><path fill="rgb(233,136,168)" stroke="rgb(233,136,168)" stroke-width="1" opacity="0.8666666666666667" d="M 348.5 341 L 346.5 344 L 339.5 347 L 339.5 346 L 348.5 341 Z " /><path fill="rgb(233,136,168)" stroke="rgb(233,136,168)" stroke-width="1" opacity="0.8666666666666667" d="M 203.5 343 L 206 343.5 L 203.5 344 L 203.5 343 Z " /><path fill="rgb(233,136,168)" stroke="rgb(233,136,168)" stroke-width="1" opacity="0.8666666666666667" d="M 209.5 344 L 213 344.5 L 209.5 345 L 209.5 344 Z " /><path fill="rgb(233,136,168)" stroke="rgb(233,136,168)" stroke-width="1" opacity="0.8666666666666667" d="M 308.5 344 L 310 346.5 L 309 346.5 L 308.5 344 Z " /><path fill="rgb(233,136,168)" stroke="rgb(233,136,168)" stroke-width="1" opacity="0.8666666666666667" d="M 214.5 345 L 219 345.5 L 214.5 346 L 214.5 345 Z " /><path fill="rgb(233,136,168)" stroke="rgb(233,136,168)" stroke-width="1" opacity="0.8666666666666667" d="M 264.5 345 L 270 351.5 L 266 348.5 L 264.5 345 Z " /><path fill="rgb(233,136,168)" stroke="rgb(233,136,168)" stroke-width="1" opacity="0.8666666666666667" d="M 220.5 346 L 223 346.5 L 220.5 347 L 220.5 346 Z " /><path fill="rgb(233,136,168)" stroke="rgb(233,136,168)" stroke-width="1" opacity="0.8666666666666667" d="M 262.5 346 L 261.5 348 L 258.5 350 L 260.5 347 L 262.5 346 Z " /><path fill="rgb(233,136,168)" stroke="rgb(233,136,168)" stroke-width="1" opacity="0.8666666666666667" d="M 226.5 347 L 231 347.5 L 226.5 348 L 226.5 347 Z " /><path fill="rgb(233,136,168)" stroke="rgb(233,136,168)" stroke-width="1" opacity="0.8666666666666667" d="M 326.5 347 L 333 347.5 L 326.5 348 L 326.5 347 Z " /><path fill="rgb(233,136,168)" stroke="rgb(233,136,168)" stroke-width="1" opacity="0.8666666666666667" d="M 232.5 348 L 236 348.5 L 232.5 349 L 232.5 348 Z " /><path fill="rgb(233,136,168)" stroke="rgb(233,136,168)" stroke-width="1" opacity="0.8666666666666667" d="M 322.5 348 L 324 348.5 L 321 350.5 L 320.5 352 L 320 350.5 L 322.5 348 Z " /><path fill="rgb(233,136,168)" stroke="rgb(233,136,168)" stroke-width="1" opacity="0.8666666666666667" d="M 237.5 349 L 240 349.5 L 237.5 350 L 237.5 349 Z " /><path fill="rgb(233,136,168)" stroke="rgb(233,136,168)" stroke-width="1" opacity="0.8666666666666667" d="M 242.5 350 L 245 350.5 L 242.5 351 L 242.5 350 Z " /><path fill="rgb(233,136,168)" stroke="rgb(233,136,168)" stroke-width="1" opacity="0.8666666666666667" d="M 247.5 350 L 252 351.5 L 248.5 352 L 247.5 350 Z " /><path fill="rgb(233,136,168)" stroke="rgb(233,136,168)" stroke-width="1" opacity="0.8666666666666667" d="M 256.5 350 L 255.5 352 L 256.5 350 Z " /><path fill="rgb(233,136,168)" stroke="rgb(233,136,168)" stroke-width="1" opacity="0.8666666666666667" d="M 282.5 351 L 296 367.5 L 294 366.5 L 282.5 351 Z " /><path fill="rgb(233,136,168)" stroke="rgb(233,136,168)" stroke-width="1" opacity="0.8666666666666667" d="M 306.5 352 L 307 353.5 L 300.5 366 L 300 364.5 L 306.5 352 Z " /><path fill="rgb(233,136,168)" stroke="rgb(233,136,168)" stroke-width="1" opacity="0.8666666666666667" d="M 270.5 353 L 287 372.5 L 282 368.5 L 270.5 353 Z " /><path fill="rgb(233,136,168)" stroke="rgb(233,136,168)" stroke-width="1" opacity="0.8666666666666667" d="M 319.5 353 L 319 354.5 L 316.5 360 L 316 358.5 L 319.5 353 Z " /><path fill="rgb(233,136,168)" stroke="rgb(233,136,168)" stroke-width="1" opacity="0.8666666666666667" d="M 315.5 361 L 315 362.5 L 313.5 366 L 313 364.5 L 315.5 361 Z " /><path fill="rgb(233,136,168)" stroke="rgb(233,136,168)" stroke-width="1" opacity="0.8666666666666667" d="M 299.5 367 L 299 368.5 L 298.5 370 L 298 368.5 L 299.5 367 Z " /><path fill="rgb(233,136,168)" stroke="rgb(233,136,168)" stroke-width="1" opacity="0.8666666666666667" d="M 312.5 367 L 312 368.5 L 310.5 372 L 310 370.5 L 312.5 367 Z " /><path fill="rgb(233,136,168)" stroke="rgb(233,136,168)" stroke-width="1" opacity="0.8666666666666667" d="M 287.5 374 L 295 382.5 L 290 378.5 L 287.5 374 Z " /><path fill="rgb(233,136,168)" stroke="rgb(233,136,168)" stroke-width="1" opacity="0.8666666666666667" d="M 306.5 379 L 306 380.5 L 303.5 386 L 303 384.5 L 306.5 379 Z " /><path fill="rgb(233,136,168)" stroke="rgb(233,136,168)" stroke-width="1" opacity="0.8666666666666667" d="M 296.5 385 L 300.5 389 L 303 387.5 L 302 390 L 300.5 390 L 296.5 385 Z " /><path fill="rgb(251,146,180)" stroke="rgb(251,146,180)" stroke-width="1" opacity="0.996078431372549" d="M 242.5 78 L 256.5 81 L 272.5 87 L 276.5 87 L 287 84 L 287.5 82 L 289.5 83 L 303.5 78 L 308.5 78 L 313.5 81 L 316.5 81 L 367.5 99 L 393 124.5 L 394.5 127 Q 396.8 126.3 396 128.5 L 400 131.5 L 404 136.5 L 411 142.5 L 412.5 145 Q 414.8 144.3 414 146.5 L 416 148.5 L 421 170.5 L 423 173.5 Q 423.2 181.8 427 186.5 L 427 190.5 L 430 196.5 L 431 203.5 L 436 218.5 L 436 222.5 L 434 227.5 L 433 238.5 L 430 248.5 L 430 255.5 L 428 260.5 L 425 279.5 L 418.5 287 L 413.5 291 L 388.5 315 L 346.5 343 L 333.5 348 Q 332 345.5 326.5 347 L 322.5 348 L 320 350.5 L 303 386.5 L 300.5 389 L 264.5 345 L 254.5 352 L 252.5 352 L 247.5 350 L 245.5 351 L 230.5 347 L 223.5 347 L 218.5 345 L 206.5 344 L 197.5 341 L 190.5 341 L 182.5 339 L 130 286.5 L 127 282.5 L 121 255.5 L 118 247.5 L 117 236.5 L 114 226.5 L 114 217.5 L 131 163.5 L 134 148.5 L 137.5 144 L 141 141.5 L 143 138.5 L 147 136 L 147 134.5 L 161.5 119 Q 163.8 119.8 163 117.5 L 167 115 L 167 113.5 L 181.5 99 L 220.5 87 L 242.5 78 Z M 244 90 L 187 110 L 177 120 L 177 122 L 200 143 L 201 140 L 220 127 L 221 126 L 221 118 L 227 111 Q 235 110 239 113 L 241 118 L 240 128 L 268 154 Q 271 154 269 148 L 269 146 L 269 124 L 270 123 L 269 121 L 270 119 L 270 117 L 269 115 L 270 114 L 270 102 L 270 100 L 268 97 L 244 90 Z M 305 90 L 299 93 L 283 97 L 280 100 L 280 102 L 281 103 L 282 154 L 287 151 L 290 147 L 293 145 L 295 142 L 306 132 L 304 125 L 305 120 L 310 116 L 314 114 L 320 115 L 325 123 Q 326 129 323 132 Q 320 136 312 135 Q 300 145 293 157 L 297 156 L 298 157 L 313 157 L 314 158 L 320 157 L 320 155 L 337 121 L 344 110 L 345 103 L 308 90 L 305 90 Z M 356 107 L 331 155 L 331 157 L 343 157 L 344 158 L 346 157 L 365 157 L 391 143 L 392 141 L 388 136 L 385 134 L 385 133 L 375 123 Q 376 120 374 121 L 371 118 Q 366 109 356 107 Z M 170 127 L 152 147 L 150 148 L 144 155 L 139 176 L 155 180 L 159 178 Q 161 179 160 177 L 175 164 L 191 157 L 198 157 L 198 155 L 173 130 L 173 128 L 170 127 Z M 226 131 L 206 149 L 206 151 L 212 157 L 239 157 L 240 156 L 241 157 L 254 157 L 256 157 L 256 155 L 254 153 L 250 149 L 247 147 L 240 138 L 234 131 L 231 131 L 228 132 L 226 131 Z M 398 149 L 387 156 L 385 159 Q 393 161 399 167 L 401 171 L 399 190 L 399 192 L 395 209 L 389 213 L 362 213 L 359 229 L 378 241 L 420 205 L 411 171 L 408 164 L 407 156 L 401 149 L 398 149 Z M 200 169 L 184 174 L 173 181 L 167 190 L 161 204 L 160 214 L 157 223 L 157 228 L 153 244 L 153 252 L 151 261 L 152 274 L 154 280 L 163 291 Q 165 290 164 293 L 183 301 L 256 301 L 258 297 L 259 284 L 261 277 Q 262 272 260 271 L 209 271 L 208 272 L 197 272 L 188 269 L 183 264 L 183 257 L 187 244 L 187 237 L 189 231 L 191 215 L 196 205 L 203 200 L 208 199 L 270 199 L 271 193 L 270 190 L 272 186 L 274 170 L 270 169 L 268 170 L 233 170 L 232 169 L 229 170 L 227 170 Q 220 172 219 169 L 207 169 L 206 170 L 200 169 Z M 287 170 L 285 172 L 285 178 L 281 197 L 282 200 L 319 200 L 317 218 L 315 224 L 313 244 L 309 263 L 309 269 L 305 288 L 305 294 L 303 301 L 335 301 L 352 204 L 353 200 L 386 200 L 389 184 L 390 171 L 389 171 L 288 171 L 287 170 Z M 137 186 L 127 212 L 125 220 L 125 227 L 125 229 L 137 277 L 141 280 L 142 279 L 140 270 L 141 245 L 144 233 L 144 227 L 146 222 L 150 195 L 152 189 L 147 187 L 137 186 Z M 235 212 L 234 213 L 215 213 L 213 214 Q 207 218 204 226 L 200 246 Q 199 253 202 256 L 210 259 L 213 258 L 217 252 L 220 251 Q 219 248 222 249 L 224 246 L 227 244 L 227 243 L 237 233 L 238 225 L 244 216 L 244 212 L 235 212 Z M 257 213 L 254 214 L 253 220 L 256 228 L 257 236 L 277 261 L 273 282 L 272 298 L 270 305 L 270 316 L 267 330 Q 266 334 269 336 L 294 367 L 299 370 L 310 346 L 307 344 L 303 336 L 304 333 L 304 330 L 290 311 L 291 296 L 293 290 L 294 278 L 297 266 L 297 259 L 300 248 L 301 235 L 304 222 L 304 214 L 304 213 L 257 213 Z M 422 215 L 413 222 Q 410 221 411 224 L 388 243 L 386 247 L 416 265 L 418 261 L 417 260 Q 421 251 421 238 L 424 230 L 424 218 L 423 217 Q 424 214 422 215 Z M 243 237 L 239 240 L 231 249 Q 232 251 229 250 L 224 257 L 225 259 L 264 259 L 264 257 L 251 240 L 250 238 L 243 237 Z M 357 238 L 350 279 L 350 281 L 343 307 Q 340 311 334 313 L 305 314 L 310 322 Q 312 326 319 327 Q 324 330 324 337 L 341 335 L 374 313 L 371 311 Q 366 308 364 302 Q 363 295 367 294 L 372 290 L 373 290 L 373 248 Q 366 241 357 238 Z M 382 253 L 380 255 L 380 290 L 381 291 Q 380 293 383 292 L 387 298 L 387 300 L 390 299 Q 392 300 391 298 L 396 294 L 397 291 L 399 291 L 415 276 L 414 273 L 382 253 Z M 171 310 L 173 314 Q 172 316 175 315 L 175 317 L 177 317 L 179 320 Q 181 319 180 322 L 189 329 L 194 329 L 200 323 Q 199 320 202 321 L 208 314 L 182 313 L 177 311 L 175 312 L 171 310 Z M 223 313 L 220 314 L 220 316 L 210 326 Q 211 328 209 327 L 205 332 L 208 333 L 219 334 L 232 337 L 234 337 L 251 341 L 255 340 L 257 338 Q 255 327 258 321 L 258 319 L 259 315 L 259 313 L 223 313 Z " /><path fill="rgb(0,0,0)" stroke="rgb(0,0,0)" stroke-width="1" opacity="0" d="M 0 0 L 554 0 L 554 451 L 0 451 L 0 0 Z M 244 76 L 236 80 L 212 87 L 207 90 L 203 90 L 183 97 L 180 97 Q 181 100 179 99 L 169 110 Q 166 109 167 112 L 165 113 L 163 116 L 160 117 L 153 127 L 150 129 Q 151 131 149 130 L 133 147 L 130 161 L 126 171 L 126 175 L 120 192 L 120 196 L 116 205 L 112 220 L 113 232 L 116 241 L 116 247 L 123 271 L 124 279 L 126 285 L 133 293 L 136 294 L 139 298 L 142 300 L 144 304 L 147 306 Q 146 308 149 307 L 152 311 Q 154 310 153 313 L 157 316 Q 156 318 159 317 L 160 320 L 163 321 L 164 324 L 167 326 Q 166 328 169 327 L 172 331 Q 174 330 173 333 L 176 334 L 179 338 Q 181 337 180 340 L 198 344 L 210 345 L 220 348 L 227 348 L 237 351 L 244 351 L 249 353 L 257 353 L 257 351 L 265 348 L 274 360 Q 273 362 276 361 L 290 380 Q 289 382 292 381 L 297 389 Q 297 391 302 391 L 307 383 L 322 350 L 333 348 L 342 348 L 380 323 Q 382 324 381 321 L 384 321 L 393 314 L 394 311 L 408 300 Q 407 297 410 298 L 426 282 L 428 275 L 428 269 L 431 260 L 431 253 L 434 243 L 434 237 L 438 222 L 430 191 L 424 175 L 423 168 L 421 165 L 421 161 Q 417 155 417 147 L 394 123 L 370 98 L 328 83 L 325 83 L 320 80 L 316 80 L 309 76 L 301 77 L 295 80 L 291 80 L 277 85 L 273 85 L 244 76 Z " /><path fill="rgb(0,0,0)" stroke="rgb(0,0,0)" stroke-width="1" opacity="0" d="M 243.5 92 L 268 99 L 268 136.5 L 267 137.5 L 268 138.5 L 268 151.5 L 258.5 143 Q 256.3 143.8 257 141.5 L 254 140 L 252.5 137 Q 250.3 137.8 251 135.5 L 247 133 L 245.5 130 Q 243.3 130.8 244 128.5 L 241 126.5 Q 244.2 124.2 243 117.5 L 237.5 110 L 227.5 109 L 221 113.5 L 219 121.5 L 220 123.5 L 202.5 138 L 197 140 L 195.5 137 Q 193.3 137.8 194 135.5 L 187 130 L 185.5 127 Q 183.3 127.8 184 125.5 L 179 120.5 L 181 118.5 Q 180.3 116.3 182.5 117 L 184 114 L 187 112.5 Q 186.1 109.5 190.5 111 L 197.5 107 L 201.5 107 L 215.5 101 L 218.5 101 L 243.5 92 Z " /><path fill="rgb(0,0,0)" stroke="rgb(0,0,0)" stroke-width="1" opacity="0" d="M 305.5 92 L 344 104.5 L 318 156 L 295 155.5 L 302.5 147 Q 304.8 147.8 304 145.5 L 307 141 L 311 138.5 Q 310.4 135.8 316.5 137 L 324 134 L 327 127.5 L 327 121.5 L 321.5 114 Q 317.7 111.3 309.5 113 L 307 114 L 305.5 117 Q 302.9 116.2 304 119.5 Q 301.3 121.3 303 127.5 L 304 130.5 L 303 133 L 300 134.5 Q 300.8 136.8 298.5 136 L 282 151.5 L 282 99.5 L 283.5 99 L 305.5 92 Z " /><path fill="rgb(0,0,0)" stroke="rgb(0,0,0)" stroke-width="1" opacity="0" d="M 356.5 110 L 361.5 111 L 378 127.5 L 390 140.5 L 363.5 156 L 333.5 156 L 334 154.5 L 354 112.5 L 356.5 110 Z " /><path fill="rgb(0,0,0)" stroke="rgb(0,0,0)" stroke-width="1" opacity="0" d="M 170.5 129 L 174.5 134 Q 176.8 133.3 176 135.5 L 180 138.5 L 181.5 141 Q 183.8 140.3 183 142.5 L 186 144 L 187.5 147 L 190 148.5 L 191.5 151 Q 193.8 150.3 193 152.5 L 196 154.5 L 188.5 157 L 184.5 157 L 177.5 160 L 160 173.5 L 156.5 178 L 147.5 177 L 141 175 L 144 164.5 L 144 159.5 L 147 153.5 Q 159.2 143.7 167 131 L 170.5 129 Z " /><path fill="rgb(0,0,0)" stroke="rgb(0,0,0)" stroke-width="1" opacity="0" d="M 226.5 133 L 229.5 134 L 232.5 133 L 235 134 L 245.5 147 Q 247.8 146.3 247 148.5 L 253.5 156 L 249.5 155 L 248.5 156 L 236.5 156 L 235.5 155 L 212.5 155 L 208 150.5 L 211.5 146 L 221 138.5 Q 220.3 136.3 222.5 137 L 224 134 L 226.5 133 Z " /><path fill="rgb(0,0,0)" stroke="rgb(0,0,0)" stroke-width="1" opacity="0" d="M 397.5 151 L 404 154 L 406 157.5 L 407 166.5 L 410 172.5 L 410 176.5 L 413 183.5 L 413 187.5 L 418 203.5 L 417 206 L 400 218.5 Q 400.8 220.8 398.5 220 L 377.5 239 L 361 229 L 364 214 L 390.5 214 L 394 213 Q 392.9 210.3 395.5 211 L 398 206.5 L 398 200.5 L 401 189.5 L 401 181.5 L 403 170.5 L 396.5 163 L 387 157.5 L 397.5 151 Z " /><path fill="rgb(0,0,0)" stroke="rgb(0,0,0)" stroke-width="1" opacity="0" d="M 198.5 171 L 271.5 171 L 272 174.5 L 270 180.5 L 270 189.5 L 268 197 L 207.5 197 L 198.5 200 L 193 205.5 L 190 211.5 Q 190.8 217.8 188 220.5 L 186 239.5 L 183 247.5 L 181 262.5 L 184.5 269 Q 191.3 274.7 204.5 274 L 205.5 273 L 259 273 L 256 300 L 187.5 300 L 178.5 297 L 174.5 297 L 167 293 Q 168.1 290.3 165.5 291 Q 157.3 285.2 154 274.5 L 153 260.5 L 154 259.5 L 154 247.5 L 157 237.5 L 157 230.5 L 160 222.5 L 161 210.5 L 164 199.5 L 167 192.5 L 176.5 181 L 187.5 174 L 198.5 171 Z " /><path fill="rgb(0,0,0)" stroke="rgb(0,0,0)" stroke-width="1" opacity="0" d="M 137.5 187 L 150 190 L 148 195.5 L 146 211.5 L 143 221.5 L 143 228.5 L 140 239.5 L 140 247.5 L 138 254.5 L 138 266.5 L 140 275.5 L 138 274.5 L 126 221.5 L 137.5 187 Z " /><path fill="rgb(0,0,0)" stroke="rgb(0,0,0)" stroke-width="1" opacity="0" d="M 216.5 214 L 241.5 214 L 242 215.5 L 237 222.5 L 236 230.5 L 210.5 257 Q 204.3 257.7 203 253.5 L 202 245.5 L 204 239.5 L 205 228.5 Q 206.4 221 211.5 217 L 216.5 214 Z " /><path fill="rgb(0,0,0)" stroke="rgb(0,0,0)" stroke-width="1" opacity="0" d="M 256 214 L 302.5 214 L 303 217.5 L 300 228.5 L 300 237.5 L 297 248.5 L 297 256.5 L 295 261.5 L 293 279.5 L 290 290.5 L 290 298.5 L 288 304.5 L 288 310.5 L 300 326.5 L 302 333.5 L 302 335.5 Q 302 344 308 346.5 L 299 367 L 294 363.5 L 270 333.5 L 269 329.5 L 271 320.5 L 271 310.5 L 274 296.5 L 274 286.5 L 277 274.5 L 278 258.5 L 270 247 L 267 245.5 L 257 232.5 L 257 224.5 Q 254.4 223.1 255 218.5 L 256 214 Z " /><path fill="rgb(0,0,0)" stroke="rgb(0,0,0)" stroke-width="1" opacity="0" d="M 421.5 217 L 423 224.5 L 420 233.5 L 420 239.5 L 417 249.5 L 416 262 L 408.5 259 L 388 245.5 L 391 244 L 392.5 241 L 407 230 Q 405.9 227.3 408.5 228 L 421.5 217 Z " /><path fill="rgb(0,0,0)" stroke="rgb(0,0,0)" stroke-width="1" opacity="0" d="M 242.5 239 L 248.5 240 L 251 242.5 L 253 245.5 L 260 253.5 L 261 257 L 227.5 257 L 227 255.5 L 230 254 L 242.5 239 Z " /><path fill="rgb(0,0,0)" stroke="rgb(0,0,0)" stroke-width="1" opacity="0" d="M 358.5 240 L 372 249.5 L 371 250.5 L 371 285.5 L 371 287.5 L 369.5 290 Q 366.2 288.9 367 291.5 Q 361.2 294.2 363 304.5 L 367 311 L 371 313.5 L 357 321 Q 358.1 323.7 355.5 323 L 339.5 334 L 325.5 335 Q 323.3 334.3 324 330.5 L 318.5 325 L 314 324 L 308 315.5 L 315.5 314 L 336.5 314 L 344 308.5 L 347 302.5 Q 347.4 291.9 351 284.5 L 351 278.5 L 354 269.5 L 354 261.5 L 356 256.5 L 358.5 240 Z " /><path fill="rgb(0,0,0)" stroke="rgb(0,0,0)" stroke-width="1" opacity="0" d="M 382.5 255 L 413 275.5 L 388.5 298 L 388 295.5 L 382 289.5 L 382.5 255 Z " /><path fill="rgb(0,0,0)" stroke="rgb(0,0,0)" stroke-width="1" opacity="0" d="M 174.5 313 L 196.5 315 Q 198.3 312.2 204.5 314 L 197 322.5 Q 197.8 324.8 195.5 324 L 194 327 L 187.5 327 L 187 325.5 L 184 324 L 184 322.5 L 175.5 314 L 174.5 313 Z " /><path fill="rgb(0,0,0)" stroke="rgb(0,0,0)" stroke-width="1" opacity="0" d="M 223.5 314 L 256.5 314 L 257 314.5 L 257 321.5 L 256 322.5 L 255 336.5 L 252.5 339 L 244.5 337 L 237.5 337 L 226.5 334 L 220.5 334 L 208 330.5 L 223.5 314 Z " /><path fill="rgb(33,32,38)" stroke="rgb(33,32,38)" stroke-width="1" opacity="1" d="M 286.5 171 L 389.5 171 L 390 174.5 L 386 199 L 352.5 199 L 352 201.5 L 335 301 L 304.5 301 Q 303.5 301 304 296.5 L 305 295.5 L 305 289.5 L 306 288.5 L 309 264.5 L 312 251.5 L 312 245.5 L 315 232.5 L 315 226.5 L 317 219.5 L 317 213.5 L 320 200.5 L 282 200 L 285 172.5 L 286.5 171 Z " /><path fill="rgb(240,175,197)" stroke="rgb(240,175,197)" stroke-width="1" opacity="0.2980392156862745" d="M 243.5 76 L 254 79.5 L 252.5 80 Q 248.8 76.7 240.5 78 L 236.5 80 L 237.5 78 L 243.5 76 Z " /><path fill="rgb(240,175,197)" stroke="rgb(240,175,197)" stroke-width="1" opacity="0.2980392156862745" d="M 304.5 76 L 308.5 76 L 315 79.5 L 313.5 80 L 307.5 77 L 304.5 77 L 295.5 80 L 295.5 79 L 304.5 76 Z " /><path fill="rgb(240,175,197)" stroke="rgb(240,175,197)" stroke-width="1" opacity="0.2980392156862745" d="M 232.5 80 L 235 80.5 L 207.5 90 L 207.5 89 L 232.5 80 Z " /><path fill="rgb(240,175,197)" stroke="rgb(240,175,197)" stroke-width="1" opacity="0.2980392156862745" d="M 255.5 80 L 272.5 85 L 276.5 85 L 293.5 80 L 293.5 81 L 277.5 86 L 272.5 86 L 255.5 81 L 255.5 80 Z " /><path fill="rgb(240,175,197)" stroke="rgb(240,175,197)" stroke-width="1" opacity="0.2980392156862745" d="M 316.5 80 Q 322 79.5 324 82.5 L 322.5 83 L 316.5 81 L 316.5 80 Z " /><path fill="rgb(240,175,197)" stroke="rgb(240,175,197)" stroke-width="1" opacity="0.2980392156862745" d="M 325.5 83 L 345 89.5 L 342.5 90 L 339.5 88 L 327.5 85 L 325.5 83 Z " /><path fill="rgb(240,175,197)" stroke="rgb(240,175,197)" stroke-width="1" opacity="0.2980392156862745" d="M 202.5 90 L 206 90.5 L 181.5 98 L 176 102.5 L 174 105.5 L 141.5 140 Q 139.3 139.3 140 141.5 L 136 144.5 L 130.5 160 L 130 156.5 L 133 146.5 L 148.5 130 Q 150.8 130.8 150 128.5 L 153 127 L 160 117 L 163 115.5 L 164.5 113 L 167 111.5 Q 166.3 109.3 168.5 110 L 178.5 99 Q 181.1 99.7 180 97 L 182.5 97 L 202.5 90 Z " /><path fill="rgb(240,175,197)" stroke="rgb(240,175,197)" stroke-width="1" opacity="0.2980392156862745" d="M 346.5 90 L 369.5 98 L 394 122.5 L 417 146.5 L 421 163.5 L 420 163.5 L 416 147.5 L 409.5 140 L 407 138.5 Q 407.8 136.3 405.5 137 L 402.5 133 Q 400.3 133.8 401 131.5 L 367.5 98 L 348.5 92 L 346.5 90 Z " /><path fill="rgb(240,175,197)" stroke="rgb(240,175,197)" stroke-width="1" opacity="0.2980392156862745" d="M 243.5 91 L 252 93.5 L 248.5 94 L 243.5 92 L 237.5 94 L 237.5 93 L 243.5 91 Z " /><path fill="rgb(240,175,197)" stroke="rgb(240,175,197)" stroke-width="1" opacity="0.2980392156862745" d="M 304.5 91 L 323 96.5 L 319.5 97 L 305.5 92 L 288.5 97 L 288.5 96 L 304.5 91 Z " /><path fill="rgb(240,175,197)" stroke="rgb(240,175,197)" stroke-width="1" opacity="0.2980392156862745" d="M 234.5 94 L 236 94.5 L 201.5 107 L 198.5 107 L 198.5 106 L 234.5 94 Z " /><path fill="rgb(240,175,197)" stroke="rgb(240,175,197)" stroke-width="1" opacity="0.2980392156862745" d="M 253.5 94 L 262 96.5 L 258.5 97 L 253.5 95 L 253.5 94 Z " /><path fill="rgb(240,175,197)" stroke="rgb(240,175,197)" stroke-width="1" opacity="0.2980392156862745" d="M 263.5 97 L 269 99.5 L 268.5 136 L 268 99 L 263.5 98 L 263.5 97 Z " /><path fill="rgb(240,175,197)" stroke="rgb(240,175,197)" stroke-width="1" opacity="0.2980392156862745" d="M 324.5 97 L 345 104.5 L 320 154.5 L 317.5 157 L 298 156.5 L 318 156 L 344 104.5 L 328.5 100 L 324.5 98 L 324.5 97 Z " /><path fill="rgb(240,175,197)" stroke="rgb(240,175,197)" stroke-width="1" opacity="0.2980392156862745" d="M 282.5 98 L 284 98.5 L 282 99 L 281.5 116 L 281 99.5 L 282.5 98 Z " /><path fill="rgb(240,175,197)" stroke="rgb(240,175,197)" stroke-width="1" opacity="0.2980392156862745" d="M 195.5 107 L 197 107.5 L 190.5 111 L 187 111 L 185.5 114 Q 183.3 113.3 184 115.5 L 181 117 L 179 120.5 L 184 127 L 187 128.5 Q 186.3 130.8 188.5 130 L 194 137 L 197 138.5 Q 196.2 141.1 199.5 140 L 220.5 123 L 221 124.5 L 198.5 142 L 179 122.5 L 178 119.5 L 187.5 110 L 195.5 107 Z " /><path fill="rgb(240,175,197)" stroke="rgb(240,175,197)" stroke-width="1" opacity="0.2980392156862745" d="M 227.5 109 L 234 109.5 Q 226.5 109.3 223 112 L 220.5 118 L 220 115.5 L 224.5 110 L 227.5 109 Z " /><path fill="rgb(240,175,197)" stroke="rgb(240,175,197)" stroke-width="1" opacity="0.2980392156862745" d="M 355 109 Q 361 108.1 364 111.5 Q 363.3 113.8 365.5 113 L 368.5 117 Q 370.8 116.3 370 118.5 L 391 140.5 L 363.5 157 L 332 157 L 333.5 153 L 334 154.5 L 333.5 156 L 363.5 156 L 390 140.5 L 361.5 111 L 356.5 110 L 354 111.5 L 355 109 Z " /><path fill="rgb(240,175,197)" stroke="rgb(240,175,197)" stroke-width="1" opacity="0.2980392156862745" d="M 235.5 110 Q 240.5 109.5 241 113.5 Q 244 116.5 243 123.5 L 241 126.5 L 244 128.5 Q 243.3 130.8 245.5 130 L 247 133 L 251 135.5 Q 250.3 137.8 252.5 137 L 254 140 L 257 141.5 Q 256.3 143.8 258.5 143 L 268 151.5 L 268 138.5 L 267 137.5 L 269 137 L 269 152.5 L 267.5 153 L 240 126.5 Q 243.2 124.2 242 117.5 L 236.5 111 L 235.5 110 Z " /><path fill="rgb(240,175,197)" stroke="rgb(240,175,197)" stroke-width="1" opacity="0.2980392156862745" d="M 309.5 113 L 314 113.5 Q 307.5 114 305 118.5 L 304 127.5 L 305 131.5 L 282.5 153 L 281 153 L 281.5 144 L 282.5 152 L 298.5 136 L 300 136 L 301.5 133 Q 303.8 133.8 303 131.5 L 304 128.5 Q 301.3 126.7 303 120.5 L 304 117 L 307 115.5 Q 306.3 113.3 308.5 114 L 309.5 113 Z " /><path fill="rgb(240,175,197)" stroke="rgb(240,175,197)" stroke-width="1" opacity="0.2980392156862745" d="M 315.5 113 Q 322.4 112.1 324 116.5 Q 328.1 119.4 327 127.5 L 324 134 Q 319.5 137.8 311 137 L 308.5 141 L 307 140.5 L 312.5 135 L 313.5 136 Q 321 136 324 131.5 Q 326.6 128.6 326 122.5 L 319.5 114 Q 314.5 115 315.5 113 Z " /><path fill="rgb(240,175,197)" stroke="rgb(240,175,197)" stroke-width="1" opacity="0.2980392156862745" d="M 353.5 113 L 354 114.5 L 338.5 144 L 338 142.5 L 353.5 113 Z " /><path fill="rgb(240,175,197)" stroke="rgb(240,175,197)" stroke-width="1" opacity="0.2980392156862745" d="M 219.5 119 L 220 121.5 L 219 121.5 L 219.5 119 Z " /><path fill="rgb(240,175,197)" stroke="rgb(240,175,197)" stroke-width="1" opacity="0.2980392156862745" d="M 169.5 128 L 197 154.5 Q 197.9 157.5 193.5 156 L 189.5 157 L 189.5 156 L 196 154.5 L 193 152.5 Q 193.8 150.3 191.5 151 L 188.5 147 L 186 145.5 Q 186.8 143.3 184.5 144 L 183 141 L 180 139.5 L 178.5 137 L 176 135.5 Q 176.8 133.3 174.5 134 L 170.5 129 L 167 131 Q 159.1 143.7 147 153.5 L 144.5 159 L 144 156.5 L 149.5 149 L 153 146.5 L 169.5 128 Z " /><path fill="rgb(240,175,197)" stroke="rgb(240,175,197)" stroke-width="1" opacity="0.2980392156862745" d="M 225.5 132 L 233.5 132 L 239 137.5 L 255 155.5 L 253 156.5 L 254 155.5 L 247 148.5 Q 247.8 146.3 245.5 147 L 235 134 L 230.5 133 L 228.5 134 L 226.5 133 L 224 134 L 222.5 137 Q 220.3 136.3 221 138.5 L 208 149.5 L 212.5 155 L 236 155.5 L 211 156 L 206 149.5 L 225.5 132 Z " /><path fill="rgb(240,175,197)" stroke="rgb(240,175,197)" stroke-width="1" opacity="0.2980392156862745" d="M 306.5 142 L 304 145.5 Q 304.8 147.8 302.5 147 L 294.5 156 L 297 152.5 L 306.5 142 Z " /><path fill="rgb(240,175,197)" stroke="rgb(240,175,197)" stroke-width="1" opacity="0.2980392156862745" d="M 337.5 145 L 338 146.5 L 334.5 152 L 335 150.5 L 337.5 145 Z " /><path fill="rgb(240,175,197)" stroke="rgb(240,175,197)" stroke-width="1" opacity="0.2980392156862745" d="M 397.5 150 L 400.5 150 L 406 155.5 L 405.5 157 L 404 154 L 397.5 151 L 387 157.5 Q 395.9 160.6 401 167.5 Q 403.8 169.2 403 174.5 L 401.5 181 L 401 175.5 L 402 170.5 L 398.5 166 L 386 157.5 L 397.5 150 Z " /><path fill="rgb(240,175,197)" stroke="rgb(240,175,197)" stroke-width="1" opacity="0.2980392156862745" d="M 184.5 157 L 188 157.5 L 176.5 162 Q 164.7 168.7 156.5 179 L 153.5 179 L 149 177.5 L 153.5 177 L 156.5 178 L 163.5 170 Q 172.2 161.7 184.5 157 Z " /><path fill="rgb(240,175,197)" stroke="rgb(240,175,197)" stroke-width="1" opacity="0.2980392156862745" d="M 406.5 158 L 407 160.5 L 406 160.5 L 406.5 158 Z " /><path fill="rgb(240,175,197)" stroke="rgb(240,175,197)" stroke-width="1" opacity="0.2980392156862745" d="M 143.5 160 L 144 164.5 L 141 175 L 147 176.5 L 144.5 177 L 140 176 L 140 171.5 L 143.5 160 Z " /><path fill="rgb(240,175,197)" stroke="rgb(240,175,197)" stroke-width="1" opacity="0.2980392156862745" d="M 129.5 161 L 130 163.5 L 126.5 174 L 126 170.5 L 129.5 161 Z " /><path fill="rgb(240,175,197)" stroke="rgb(240,175,197)" stroke-width="1" opacity="0.2980392156862745" d="M 407.5 163 L 410 171.5 L 409 171.5 Q 406 168.1 407.5 163 Z " /><path fill="rgb(240,175,197)" stroke="rgb(240,175,197)" stroke-width="1" opacity="0.2980392156862745" d="M 421.5 165 L 424 173.5 L 423 173.5 L 421.5 165 Z " /><path fill="rgb(240,175,197)" stroke="rgb(240,175,197)" stroke-width="1" opacity="0.2980392156862745" d="M 198.5 170 L 272.5 170 Q 273.6 170.1 273 175.5 L 270.5 188 L 270 180.5 L 272 171 L 198.5 171 L 181.5 177 L 173 184.5 L 167.5 192 L 168 190.5 Q 171.3 182.3 178.5 178 L 187.5 173 L 198.5 170 Z " /><path fill="rgb(240,175,197)" stroke="rgb(240,175,197)" stroke-width="1" opacity="0.2980392156862745" d="M 410.5 173 L 417 196.5 L 416 196.5 L 410 176.5 L 410.5 173 Z " /><path fill="rgb(240,175,197)" stroke="rgb(240,175,197)" stroke-width="1" opacity="0.2980392156862745" d="M 125.5 175 L 126 177.5 L 120.5 195 L 120 191.5 L 125.5 175 Z " /><path fill="rgb(240,175,197)" stroke="rgb(240,175,197)" stroke-width="1" opacity="0.2980392156862745" d="M 424.5 175 L 437 214.5 L 438 221.5 L 434.5 236 L 434 232.5 L 437 219.5 L 424 177.5 L 424.5 175 Z " /><path fill="rgb(240,175,197)" stroke="rgb(240,175,197)" stroke-width="1" opacity="0.2980392156862745" d="M 400.5 182 L 401 189.5 L 398 200.5 L 398 206.5 L 395.5 211 Q 392.9 210.3 394 213 L 391.5 213 L 390.5 214 L 364 214 L 361 229 L 377.5 239 L 398.5 220 L 400 220 L 401.5 217 L 417 206 L 418 202.5 L 417 198.5 L 418 198.5 L 419 204.5 L 376.5 240 L 360 228.5 L 362 214.5 L 363.5 213 L 390.5 213 L 396 208.5 L 400.5 182 Z " /><path fill="rgb(240,175,197)" stroke="rgb(240,175,197)" stroke-width="1" opacity="0.2980392156862745" d="M 137.5 186 L 151 189 L 150.5 192 L 150 190 L 137.5 187 L 126 223.5 L 127 228.5 L 126 228.5 L 125 221.5 L 136 187.5 L 137.5 186 Z " /><path fill="rgb(240,175,197)" stroke="rgb(240,175,197)" stroke-width="1" opacity="0.2980392156862745" d="M 269.5 190 L 270 193.5 L 269 198 L 208.5 198 L 201.5 200 L 201.5 199 L 207.5 197 L 268 197 L 269.5 190 Z " /><path fill="rgb(240,175,197)" stroke="rgb(240,175,197)" stroke-width="1" opacity="0.2980392156862745" d="M 149.5 193 L 150 195.5 L 148 200.5 L 146.5 211 L 146 205.5 L 149.5 193 Z " /><path fill="rgb(240,175,197)" stroke="rgb(240,175,197)" stroke-width="1" opacity="0.2980392156862745" d="M 166.5 193 L 167 194.5 L 162 206.5 L 160 222.5 L 157.5 230 L 157 226.5 L 159 221.5 L 162 202.5 L 166.5 193 Z " /><path fill="rgb(240,175,197)" stroke="rgb(240,175,197)" stroke-width="1" opacity="0.2980392156862745" d="M 119.5 196 L 120 197.5 Q 114.6 209.1 112.5 224 L 112 219.5 L 119.5 196 Z " /><path fill="rgb(240,175,197)" stroke="rgb(240,175,197)" stroke-width="1" opacity="0.2980392156862745" d="M 198.5 200 L 200 200.5 L 194 205.5 L 190.5 216 L 190 211.5 Q 192.6 204.1 198.5 200 Z " /><path fill="rgb(240,175,197)" stroke="rgb(240,175,197)" stroke-width="1" opacity="0.2980392156862745" d="M 145.5 212 L 146 216.5 L 144 222.5 L 144 228.5 L 142 234.5 L 140.5 247 L 140 239.5 L 145.5 212 Z " /><path fill="rgb(240,175,197)" stroke="rgb(240,175,197)" stroke-width="1" opacity="0.2980392156862745" d="M 217.5 213 L 244 213.5 L 237 225.5 L 237 231.5 L 223 245.5 L 223 247 L 220 248.5 L 218.5 251 Q 216.3 250.3 217 252.5 L 211.5 257 L 231 236.5 L 236 230.5 L 237 222.5 Q 241.3 219.6 242 214 L 217.5 214 L 217.5 213 Z " /><path fill="rgb(240,175,197)" stroke="rgb(240,175,197)" stroke-width="1" opacity="0.2980392156862745" d="M 256.5 213 L 303.5 213 Q 304.5 213 304 217.5 L 300.5 236 L 300 228.5 L 303 214 L 256.5 214 L 256 217.5 L 255 221.5 L 257 226.5 L 256 226.5 L 254 222.5 L 254 218.5 L 256.5 213 Z " /><path fill="rgb(240,175,197)" stroke="rgb(240,175,197)" stroke-width="1" opacity="0.2980392156862745" d="M 214.5 214 L 216 214.5 L 210 218.5 Q 205.2 223.2 204.5 232 L 204 228.5 Q 205.8 219.3 212.5 215 L 214.5 214 Z " /><path fill="rgb(240,175,197)" stroke="rgb(240,175,197)" stroke-width="1" opacity="0.2980392156862745" d="M 421.5 216 Q 424.7 218.3 424 224.5 L 420.5 239 L 420 233.5 L 422 229.5 L 423 220.5 L 421.5 217 L 407 228 Q 408.1 230.7 405.5 230 L 391 242.5 Q 391.8 244.8 389.5 244 Q 386.5 245.5 389.5 247 L 408.5 259 L 416 262 L 416.5 257 L 417 261.5 L 415.5 264 L 387 247 Q 385.5 243.3 388.5 244 L 421.5 216 Z " /><path fill="rgb(240,175,197)" stroke="rgb(240,175,197)" stroke-width="1" opacity="0.2980392156862745" d="M 189.5 217 L 190 219.5 L 187 233.5 L 187 239.5 L 182 257.5 L 182 262.5 L 187.5 270 L 189 270.5 L 187.5 271 L 183 267.5 L 181 262.5 L 181 257.5 L 186 239.5 Q 186 226.5 189.5 217 Z " /><path fill="rgb(240,175,197)" stroke="rgb(240,175,197)" stroke-width="1" opacity="0.2980392156862745" d="M 113.5 225 L 120 257.5 L 119 257.5 L 116 246.5 L 116 240.5 L 113 231.5 L 113.5 225 Z " /><path fill="rgb(240,175,197)" stroke="rgb(240,175,197)" stroke-width="1" opacity="0.2980392156862745" d="M 127.5 230 L 134 255.5 L 134 259.5 L 133 259.5 L 127 233.5 L 127.5 230 Z " /><path fill="rgb(240,175,197)" stroke="rgb(240,175,197)" stroke-width="1" opacity="0.2980392156862745" d="M 156.5 231 L 157 237.5 L 154.5 247 L 154 242.5 L 156.5 231 Z " /><path fill="rgb(240,175,197)" stroke="rgb(240,175,197)" stroke-width="1" opacity="0.2980392156862745" d="M 256.5 231 L 268.5 247 Q 270.8 246.3 270 248.5 L 277 256.5 L 278 262.5 L 277 262.5 L 277 258.5 L 258 235.5 L 256.5 231 Z " /><path fill="rgb(240,175,197)" stroke="rgb(240,175,197)" stroke-width="1" opacity="0.2980392156862745" d="M 203.5 233 L 204 239.5 L 202 245.5 L 202 251.5 L 205.5 256 L 207 256.5 L 204.5 257 Q 199.5 254.5 201 245.5 L 203.5 233 Z " /><path fill="rgb(240,175,197)" stroke="rgb(240,175,197)" stroke-width="1" opacity="0.2980392156862745" d="M 433.5 237 L 434 242.5 L 431.5 252 L 431 248.5 L 433.5 237 Z " /><path fill="rgb(240,175,197)" stroke="rgb(240,175,197)" stroke-width="1" opacity="0.2980392156862745" d="M 241 238 L 249.5 239 L 251 240.5 L 264 257.5 L 224.5 258 L 231 250.5 L 241 238 Z M 243 239 L 230 254 L 227 256 L 228 257 L 261 257 L 260 254 L 253 246 L 251 243 L 249 240 L 243 239 Z " /><path fill="rgb(240,175,197)" stroke="rgb(240,175,197)" stroke-width="1" opacity="0.2980392156862745" d="M 299.5 238 L 300 242.5 L 297.5 255 L 297 248.5 L 299.5 238 Z " /><path fill="rgb(240,175,197)" stroke="rgb(240,175,197)" stroke-width="1" opacity="0.2980392156862745" d="M 358.5 239 L 372 247.5 L 371.5 249 L 358.5 240 L 354.5 261 L 354 257.5 L 356 251.5 L 357 240.5 L 358.5 239 Z " /><path fill="rgb(240,175,197)" stroke="rgb(240,175,197)" stroke-width="1" opacity="0.2980392156862745" d="M 419.5 240 L 420 244.5 L 417.5 256 L 417 249.5 L 419.5 240 Z " /><path fill="rgb(240,175,197)" stroke="rgb(240,175,197)" stroke-width="1" opacity="0.2980392156862745" d="M 139.5 248 L 140 252.5 L 139 252.5 L 139.5 248 Z " /><path fill="rgb(240,175,197)" stroke="rgb(240,175,197)" stroke-width="1" opacity="0.2980392156862745" d="M 153.5 248 L 154 259.5 L 153 264.5 L 154 265.5 L 154 274.5 L 157 281.5 L 165.5 291 L 168.5 293 L 174 296.5 L 172.5 296 L 162 290 L 156 281.5 L 153 274.5 L 152 256.5 L 153.5 248 Z " /><path fill="rgb(240,175,197)" stroke="rgb(240,175,197)" stroke-width="1" opacity="0.2980392156862745" d="M 371.5 250 L 372 285.5 L 371 285.5 L 371.5 250 Z " /><path fill="rgb(240,175,197)" stroke="rgb(240,175,197)" stroke-width="1" opacity="0.2980392156862745" d="M 430.5 253 L 431 259.5 L 428.5 268 L 428 264.5 L 430.5 253 Z " /><path fill="rgb(240,175,197)" stroke="rgb(240,175,197)" stroke-width="1" opacity="0.2980392156862745" d="M 138.5 254 L 139 266.5 L 138 266.5 L 138.5 254 Z " /><path fill="rgb(240,175,197)" stroke="rgb(240,175,197)" stroke-width="1" opacity="0.2980392156862745" d="M 381 254 L 414 274 L 409.5 280 L 388.5 299 L 382.5 291 L 381 290.5 L 381 254 Z M 383 255 L 382 290 L 388 296 L 389 298 L 413 276 L 383 255 Z " /><path fill="rgb(240,175,197)" stroke="rgb(240,175,197)" stroke-width="1" opacity="0.2980392156862745" d="M 296.5 257 L 297 260.5 L 290.5 298 L 290 290.5 L 293 279.5 L 293 272.5 L 296.5 257 Z " /><path fill="rgb(240,175,197)" stroke="rgb(240,175,197)" stroke-width="1" opacity="0.2980392156862745" d="M 120.5 259 L 126 281.5 L 129 286.5 L 181.5 339 L 188 340.5 L 182.5 341 L 180 340 Q 181.1 337.3 178.5 338 L 175.5 334 L 173 332.5 Q 173.8 330.3 171.5 331 L 168.5 327 Q 166.3 327.8 167 325.5 L 164 324 L 162.5 321 L 160 319.5 L 158.5 317 Q 156.3 317.8 157 315.5 L 153 312.5 Q 153.8 310.3 151.5 311 L 148.5 307 Q 146.3 307.8 147 305.5 L 144 304 L 141.5 300 L 138.5 298 L 135.5 294 L 133 292.5 L 126 284.5 L 120 262.5 L 120.5 259 Z " /><path fill="rgb(240,175,197)" stroke="rgb(240,175,197)" stroke-width="1" opacity="0.2980392156862745" d="M 134.5 261 L 137 270.5 L 136 270.5 L 134.5 261 Z " /><path fill="rgb(240,175,197)" stroke="rgb(240,175,197)" stroke-width="1" opacity="0.2980392156862745" d="M 353.5 263 L 354 269.5 L 351.5 278 L 351 274.5 L 353.5 263 Z " /><path fill="rgb(240,175,197)" stroke="rgb(240,175,197)" stroke-width="1" opacity="0.2980392156862745" d="M 276.5 266 L 277 274.5 L 274.5 286 L 274 280.5 L 276.5 266 Z " /><path fill="rgb(240,175,197)" stroke="rgb(240,175,197)" stroke-width="1" opacity="0.2980392156862745" d="M 139.5 268 L 140 272.5 L 139 272.5 L 139.5 268 Z " /><path fill="rgb(240,175,197)" stroke="rgb(240,175,197)" stroke-width="1" opacity="0.2980392156862745" d="M 427.5 269 L 428 274.5 L 426 281.5 L 409.5 298 Q 407.3 297.3 408 299.5 L 394 311 L 392.5 314 L 383.5 321 L 381 321 Q 382.1 323.7 379.5 323 L 343.5 347 L 334.5 348 L 334.5 347 L 340.5 347 L 346.5 344 L 385.5 318 L 417 289.5 Q 416.3 287.3 418.5 288 L 425 281.5 L 427.5 269 Z " /><path fill="rgb(240,175,197)" stroke="rgb(240,175,197)" stroke-width="1" opacity="0.2980392156862745" d="M 190.5 271 L 192.5 272 L 260 272 L 257.5 293 L 257 284.5 L 259 273 L 205.5 273 Q 203.8 275.8 197.5 274 L 190.5 272 L 190.5 271 Z " /><path fill="rgb(240,175,197)" stroke="rgb(240,175,197)" stroke-width="1" opacity="0.2980392156862745" d="M 137.5 272 L 139.5 276 L 140.5 274 L 141 278.5 L 138 276.5 L 137.5 272 Z " /><path fill="rgb(240,175,197)" stroke="rgb(240,175,197)" stroke-width="1" opacity="0.2980392156862745" d="M 350.5 279 L 351 284.5 Q 347.3 291.9 347 302.5 L 341.5 311 L 336.5 314 L 331.5 314 L 331.5 313 L 335.5 313 L 343 309 L 346 301.5 L 350.5 279 Z " /><path fill="rgb(240,175,197)" stroke="rgb(240,175,197)" stroke-width="1" opacity="0.2980392156862745" d="M 273.5 287 L 274 296.5 L 271.5 310 L 271 304.5 L 272 303.5 L 273.5 287 Z " /><path fill="rgb(240,175,197)" stroke="rgb(240,175,197)" stroke-width="1" opacity="0.2980392156862745" d="M 371.5 287 L 372 290 Q 367.3 290.5 365 294.5 Q 362.7 297.7 364 304.5 L 369.5 311 L 373 312.5 L 340.5 334 L 341.5 332 L 357 323 Q 355.9 320.3 358.5 321 L 371 313.5 L 367 311 L 363 304.5 L 363 296.5 L 367 290 L 371 288.5 L 371.5 287 Z " /><path fill="rgb(240,175,197)" stroke="rgb(240,175,197)" stroke-width="1" opacity="0.2980392156862745" d="M 256.5 294 L 257 299.5 L 255.5 301 L 187.5 301 L 175 297.5 L 178.5 297 L 187.5 300 L 256 300 L 256.5 294 Z " /><path fill="rgb(240,175,197)" stroke="rgb(240,175,197)" stroke-width="1" opacity="0.2980392156862745" d="M 289.5 299 L 290 303.5 Q 287.5 305 289 310.5 L 304 330.5 L 301.5 335 L 302 333.5 L 300 326.5 L 288 310.5 L 288 304.5 L 289.5 299 Z " /><path fill="rgb(240,175,197)" stroke="rgb(240,175,197)" stroke-width="1" opacity="0.2980392156862745" d="M 172.5 311 Q 177.1 313.9 185 313.5 L 177.5 314 L 173.5 313 L 172.5 311 Z " /><path fill="rgb(240,175,197)" stroke="rgb(240,175,197)" stroke-width="1" opacity="0.2980392156862745" d="M 270.5 311 L 271 320.5 L 269 331.5 L 297.5 367 Q 299.8 367.8 299 365.5 L 300 365.5 L 297.5 369 L 270 335.5 Q 267.4 334.1 268 329.5 L 269 328.5 L 269 319.5 L 270.5 311 Z " /><path fill="rgb(240,175,197)" stroke="rgb(240,175,197)" stroke-width="1" opacity="0.2980392156862745" d="M 203.5 313 Q 207.9 311.5 207 314.5 L 191.5 329 L 187.5 328 L 183 323.5 L 175 314.5 L 184 322.5 Q 183.3 324.8 185.5 324 L 187 327 L 193.5 327 L 194 325.5 L 197 324 L 205 314.5 L 203.5 313 Z " /><path fill="rgb(240,175,197)" stroke="rgb(240,175,197)" stroke-width="1" opacity="0.2980392156862745" d="M 223.5 313 L 257.5 313 Q 258.8 313.3 258 319.5 L 257 319.5 Q 257.6 314.1 256.5 314 L 223.5 314 L 208 330.5 L 220 333.5 L 216.5 334 L 206 331.5 L 221.5 314 L 223.5 313 Z " /><path fill="rgb(240,175,197)" stroke="rgb(240,175,197)" stroke-width="1" opacity="0.2980392156862745" d="M 188.5 314 L 197 314.5 L 188.5 315 L 188.5 314 Z " /><path fill="rgb(240,175,197)" stroke="rgb(240,175,197)" stroke-width="1" opacity="0.2980392156862745" d="M 306.5 314 L 315 314.5 L 308 315.5 L 314 324 Q 321.1 324.4 324 330.5 L 323.5 333 L 319.5 327 L 314.5 325 L 311 321.5 L 306.5 314 Z " /><path fill="rgb(240,175,197)" stroke="rgb(240,175,197)" stroke-width="1" opacity="0.2980392156862745" d="M 256.5 322 L 257 330.5 L 256 330.5 L 256.5 322 Z " /><path fill="rgb(240,175,197)" stroke="rgb(240,175,197)" stroke-width="1" opacity="0.2980392156862745" d="M 255.5 332 L 256 337.5 Q 254.8 341.3 248.5 340 L 238 337.5 L 244.5 337 L 252.5 339 Q 256 337.5 255.5 332 Z " /><path fill="rgb(240,175,197)" stroke="rgb(240,175,197)" stroke-width="1" opacity="0.2980392156862745" d="M 222.5 334 L 237 336.5 L 232.5 337 L 222.5 335 L 222.5 334 Z " /><path fill="rgb(240,175,197)" stroke="rgb(240,175,197)" stroke-width="1" opacity="0.2980392156862745" d="M 324.5 334 Q 326 336.5 331.5 335 Q 333 332.5 338.5 334 L 338.5 335 L 324 336 L 324.5 334 Z " /><path fill="rgb(240,175,197)" stroke="rgb(240,175,197)" stroke-width="1" opacity="0.2980392156862745" d="M 302.5 336 Q 302.6 341.9 306.5 344 L 309 345.5 L 300.5 364 L 300 362.5 L 308 346.5 Q 301.6 343.7 302.5 336 Z " /><path fill="rgb(240,175,197)" stroke="rgb(240,175,197)" stroke-width="1" opacity="0.2980392156862745" d="M 189.5 341 L 209 344.5 L 203.5 345 L 189.5 342 L 189.5 341 Z " /><path fill="rgb(240,175,197)" stroke="rgb(240,175,197)" stroke-width="1" opacity="0.2980392156862745" d="M 210.5 345 L 226 347.5 L 219.5 348 L 210.5 346 L 210.5 345 Z " /><path fill="rgb(240,175,197)" stroke="rgb(240,175,197)" stroke-width="1" opacity="0.2980392156862745" d="M 263.5 346 L 266 347.5 L 300.5 390 Q 302.8 390.8 302 388.5 L 322.5 349 L 331.5 348 L 331.5 349 L 322 350 L 307 382.5 L 301.5 391 Q 297.5 391.5 297 388.5 L 291.5 381 Q 289.3 381.8 290 379.5 L 275.5 361 Q 273.3 361.8 274 359.5 L 264.5 348 L 257 351 L 256.5 353 L 248.5 353 L 244 351.5 L 247.5 351 Q 249.2 353.8 255.5 352 L 263.5 346 Z " /><path fill="rgb(240,175,197)" stroke="rgb(240,175,197)" stroke-width="1" opacity="0.2980392156862745" d="M 227.5 348 L 242 350.5 L 236.5 351 L 227.5 349 L 227.5 348 Z " /></svg>